<svg xmlns="http://www.w3.org/2000/svg" viewBox="0 0 100 100"><path d="M12.3 27.5c1.6-1 3.3-1.9 5-2.7 1.9-.9 3.9-1.9 5.8-2.8l14.7-7.2C47 10.3 56.2 5.9 65.3 1.4c0 0 10.1-4.2 21.1 1.9 1.9.8 12.8 9.1 13.4 19.4.1 1.5.3 35.1.3 35.1v17.9s-.9 13-13.7 20.6c-9.2 5.5-18.2 2.9-18.2 2.9s-1.6-.1-4.1-1.1C61.6 97.1 35 84 35 84L13.2 73.4c-.4-.3-.8-.6-1.1-.9-.9-.7-1.7-1.4-2.5-2.1-1.1-.9-2.1-1.9-3.1-3s-2-2.3-2.8-3.6c-.4-.6-.7-1.3-1-1.9-.4-.8-.6-1.7-.9-2.6-.3-1-.6-2-.9-3.1-.4-1.8-.7-3.6-.9-5.5.4-5.3 1.6-11.2 4.2-15.4 2.2-3.4 5-5.8 8.1-7.8z" fill="#5690f5"/><path d="M12 41.8c.5-1.6 1.6-2.4 3.3-2.7 6.1-1.1 12.2-1.4 18.4-.9 2.8.2 5.7.6 8.5 1 1 .2 2 .6 2.9 1 1 .4 2 .9 3 1.4 2.6 1.2 5.2 1.2 7.8 0 1.2-.6 2.3-1.1 3.5-1.7 2.3-1 4.7-1.4 7.1-1.5 4.4-.2 8.7-.4 13.1-.3 3.2.1 6.3.6 9.4 1.1 1.9.3 2.9 1.6 2.9 3.6v2.3c0 .9-.3 1.6-.8 2.3-.4.6-.7 1.4-.8 2.1-.5 2.2-.9 4.4-1.3 6.7-.7 3.6-2.9 5.8-6.3 6.7-5.9 1.6-11.9 1.6-17.8-.2-3.6-1.1-5.9-3.5-7.5-6.7-1.2-2.4-2.1-4.8-2.6-7.4-.2-.9-.7-1.4-1.6-1.5-.6-.1-1.1-.1-1.7-.1-1.6.1-2.1.5-2.5 2.1-.6 2.7-1.7 5.3-3 7.8-1.8 3.3-4.5 5.2-8 6.2-4.2 1.1-8.5 1.3-12.8.7-2.1-.3-4.1-.7-6-1.7-2.2-1.2-3.5-3-4-5.4-.5-2.4-1-4.8-1.4-7.2-.2-.9-.4-1.7-1-2.4-.3-.4-.5-.9-.7-1.4-.1-1.3-.1-2.6-.1-3.9zm16.7-1.1c-2.2.2-4.3.3-6.4.6-2.6.4-4.4 1.9-5.1 4.6-.6 2.6-.4 5.1.1 7.6.9 4.1 3.4 6.6 7.5 7.4 3.3.7 6.5.8 9.8.2 2.4-.5 4.8-1.2 6.6-3 3.2-3.3 4.7-7.4 4.7-11.9 0-1.4-.6-2.4-1.9-2.9-1.6-.6-3.3-1.3-5-1.5-3.4-.5-6.9-.7-10.3-1.1zm47.4.1c-3.5.3-6.3.4-9.2.7-2.3.2-4.5.7-6.6 1.6-1.6.7-2.3 1.9-2.3 3.6 0 2.7.9 5.1 1.9 7.5 1.4 3.3 3.8 5.4 7.2 6.4 4.4 1.4 8.9 1.3 13.3 0 2.3-.7 4.1-2 5.1-4.3 1.5-3.2 1.9-6.5 1.2-10-.5-2.6-2-4.4-4.6-4.8-2.1-.4-4.4-.6-6-.7zm-60.6 2.5c-.7-.3-1.2-.5-1.8-.7V44c.6-.2 1.1-.4 1.8-.7zm74.8-.7c-.6.2-1.1.4-1.8.7.7.3 1.2.5 1.8.7v-1.4z" fill="#fff"/></svg>