<svg version="1.1" id="Layer_1" xmlns="http://www.w3.org/2000/svg" x="0" y="0" viewBox="0 0 360 360" xml:space="preserve"><style>.st0{fill:#5690f5}</style><path class="st0" d="M0 179.7C.1 80.4 80.9-.1 180.3 0 279.7.1 360.1 80.8 360 180.3c-.1 99.4-80.9 179.9-180.3 179.7C80.3 359.8-.1 279.2 0 179.7zM179.9 345c90.9.1 165.1-74.1 165.1-165 0-90.8-73.8-164.7-164.7-165C89.4 14.8 15.2 88.8 15 179.8c-.1 90.9 74 165.1 164.9 165.2z"/><path class="st0" d="M30 180.1C29.9 97.5 97.2 30.1 179.9 30 262.5 29.9 330 97.2 330 179.9c.1 82.9-67.4 150.2-150.6 150.1-82.2-.1-149.3-67.5-149.4-149.9zm240.5 100c-1.6-1.2-2.9-1.9-3.8-2.8-7.4-7.3-14.7-14.6-22-22-4.1-4.2-3.7-9.8.9-12.4 3.2-1.9 6.6-1.3 9.8 1.9l22.8 22.8c.8.8 1.6 1.4 2.6 2.3 20.6-23.8 32-50.9 34-82.3h-35.3c-5.6 0-8.8-2.7-8.9-7.4-.1-4.8 3.2-7.6 9-7.6h35.2c-2.2-31.7-13.5-58.8-34.2-82.4-1.3 1.2-2.2 2.1-3.1 2.9-7.4 7.4-14.8 14.9-22.3 22.2-4.2 4.1-9.8 3.6-12.4-.9-1.9-3.3-1.3-6.6 1.9-9.8 7.4-7.5 14.8-14.9 22.3-22.3.9-.9 1.8-1.9 2.8-3.1-23.8-20.7-50.9-32.1-82.3-34.1v35.3c0 5.6-2.7 8.9-7.4 8.9-4.8.1-7.6-3.2-7.6-9V49.2v-4.1c-31.7 2.2-58.8 13.5-82.3 34.2 1.2 1.3 2.1 2.2 2.9 3.1 7.4 7.4 14.9 14.8 22.2 22.3 4.1 4.2 3.6 9.8-.9 12.4-3.3 1.9-6.6 1.3-9.8-1.9-7.5-7.4-14.9-14.8-22.3-22.3-.9-.9-1.9-1.8-3.1-2.8-20.7 23.8-32.1 50.9-34.1 82.4h35.3c5.6 0 8.9 2.7 8.9 7.4.1 4.8-3.2 7.6-9 7.6H45.1c2.2 31.7 13.5 58.8 34.6 82.8 1.2-1.5 2-2.7 3-3.6 7.2-7.3 14.4-14.6 21.8-21.7 1.7-1.6 4.7-3.2 6.8-2.9 2.3.3 4.9 2.4 6.2 4.5 1.8 2.9.4 6-2 8.5-7.5 7.5-15 15-22.5 22.6-.9.9-1.8 1.9-2.8 3.1 23.8 20.7 50.9 32 82.3 34.1v-35.3c0-5.6 2.7-8.9 7.4-8.9 4.8-.1 7.6 3.2 7.6 9v35.1c31.6-2.2 58.7-13.5 83-34.7z"/><path class="st0" d="M187.5 150.3c0 3.9-.3 7.8.1 11.6 1.3 13.4-1.7 25.8-7.7 37.8-5.6 11.4-10.1 23.3-15.2 35-1.5 3.4-3.9 5.5-7.8 5.2-3.5-.2-5.9-2.3-6.6-5.7-.4-1.9.1-4.2.9-6.1 6.6-15.6 13.3-31.2 19.9-46.8.8-1.9 1.3-4.1 1.3-6.1.1-18 .1-36 0-53.9 0-3.2.8-5.9 3.7-7.7 5.2-3.2 11.3.5 11.3 7 .2 9.9.1 19.8.1 29.7z"/></svg>