<svg version="1.1" id="Layer_1" xmlns="http://www.w3.org/2000/svg" x="0" y="0" viewBox="0 0 100 100" xml:space="preserve"><style>.st1{fill:#fff}</style><path id="фон" d="M12.3 27.5c1.6-1 3.3-1.9 5-2.7 1.9-.9 3.9-1.9 5.8-2.8l14.7-7.2C47 10.3 56.2 5.9 65.3 1.4c0 0 10.1-4.2 21.1 1.9 1.9.8 12.8 9.1 13.4 19.4.1 1.5.3 35.1.3 35.1v17.9s-.9 13-13.7 20.6c-9.2 5.5-18.2 2.9-18.2 2.9s-1.6-.1-4.1-1.1C61.6 97.1 35 84 35 84L13.2 73.4c-.4-.3-.8-.6-1.1-.9-.9-.7-1.7-1.4-2.5-2.1-1.1-.9-2.1-1.9-3.1-3s-2-2.3-2.8-3.6c-.4-.6-.7-1.3-1-1.9-.4-.8-.6-1.7-.9-2.6-.3-1-.6-2-.9-3.1-.4-1.8-.7-3.6-.9-5.5.4-5.3 1.6-11.2 4.2-15.4 2.2-3.4 5-5.8 8.1-7.8z" fill="#5690f5"/><path class="st1" d="M34.2 67c-1.3 0-2.7.2-4 0-2.8-.4-4.9-2.9-4.9-5.7V34.9c0-3.3 2.6-5.9 5.9-5.9h30.7c3.3 0 5.9 2.6 5.9 5.9v2.8h5.8c2.9 0 5.2 1.8 5.9 4.6.3 1.3.7 2.6 1 4 .1.5.3.8.8 1 1.9.8 3.2 2.1 3.7 4 .1.5.2 1.1.2 1.7v8c0 2.7-1.5 4.9-4.1 5.8-.2.1-.5.4-.6.6-.9 2.5-3 4.1-5.5 4.1-2.6 0-4.8-1.5-5.7-4 0-.1-.1-.2-.2-.4H46.4c-.4 0-.7 0-.9.5-.9 2.4-3.1 3.9-5.6 3.9-2.5 0-4.6-1.5-5.6-3.9.1-.2.1-.4-.1-.6zm30.4-3.2V63 51.5 35.1c0-1.7-1.1-2.9-2.8-2.9H31.3c-1.6 0-2.7 1.2-2.7 2.7v26.2c0 1.6 1.2 2.7 2.7 2.7h2.4c.5 0 .6-.2.8-.6.9-2.2 2.5-3.5 4.9-3.7 2.2-.3 4.1.6 5.4 2.4.4.6.7 1.3 1.1 1.9h18.7zm16-.4c.9-.6 1.4-1.4 1.4-2.4v-8.1c0-1.1-.5-2-1.5-2.5-.6-.3-1.1-.6-1.7-.9-.6-.3-1-.8-1.2-1.5-.4-1.6-.8-3.3-1.2-4.9-.4-1.5-1.4-2.3-2.9-2.3h-5.6v22.8c1.2.1 1.2.1 1.7-.9 1.2-2.6 4.2-4 7-3.2 1.9.7 3.2 2 4 3.9zm-37.8 2c0-1.5-1.2-2.7-2.7-2.7-1.5 0-2.7 1.2-2.7 2.7 0 1.5 1.2 2.7 2.7 2.7 1.4.1 2.7-1.2 2.7-2.7zm34.9 0c0-1.5-1.2-2.7-2.7-2.7-1.5 0-2.7 1.2-2.7 2.7 0 1.5 1.2 2.7 2.7 2.7 1.5.1 2.7-1.2 2.7-2.7z"/><path class="st1" d="M46.7 46.3h10.7c1.3 0 2.1 1.1 1.6 2.2-.3.6-.7.9-1.3 1h-22c-.9-.1-1.6-.7-1.6-1.6 0-.9.7-1.6 1.6-1.6h11zM51 37.6h6.2c1.2 0 1.9.7 1.9 1.7s-.8 1.6-1.9 1.6H44.6c-1.1 0-1.9-.6-1.9-1.6s.7-1.6 1.9-1.6c2.2-.1 4.3-.1 6.4-.1z"/></svg>