<svg width="21" height="19" fill="none" xmlns="http://www.w3.org/2000/svg"><path d="M15.278.448c-2.218 0-4.05 2.06-4.792 3.033C9.746 2.51 7.913.448 5.695.448 2.823.448.486 3.088.486 6.334c0 1.77.703 3.42 1.933 4.55a.41.41 0 00.066.084l7.707 7.692a.416.416 0 00.589 0l7.964-7.962.082-.08a3.42 3.42 0 00.201-.203.408.408 0 00.075-.099c.893-1.094 1.383-2.504 1.383-3.982 0-3.245-2.336-5.886-5.208-5.886zm3.131 9.4a.384.384 0 00-.031.042c-.04.044-.082.084-.124.124l-7.768 7.762-7.317-7.303a.418.418 0 00-.097-.124C1.958 9.377 1.32 7.913 1.32 6.334c0-2.786 1.962-5.052 4.375-5.052 2.385 0 4.42 3.11 4.441 3.142.154.238.547.238.7 0 .021-.031 2.057-3.142 4.442-3.142 2.412 0 4.375 2.266 4.375 5.052 0 1.312-.442 2.56-1.244 3.513z" fill="#5690F5"/></svg>