<svg version="1.1" id="Layer_1" xmlns="http://www.w3.org/2000/svg" x="0" y="0" viewBox="0 0 493.4 212.7" xml:space="preserve"><style>.st0{fill:#fff}.st2{fill:none;stroke:#fff;stroke-width:11}</style><path class="st0" d="M0 177.2c.3-1.4.6-2.8 1-4.1.8-2.3 1.5-4.7 2.6-6.8 3.1-5.9 7.7-10.3 13.7-13.2 2.9-1.4 6-2.2 9.2-2.8 3.6-.7 7.1-.6 10.6-.3 5 .4 9.8 2 14 4.8 5.2 3.4 9.3 7.9 11.8 13.6.8 1.8 1.4 3.8 1.8 5.7.5 2.6 1 5.3.9 8-.4 8.5-3.2 16-9.6 21.9-3.7 3.4-7.9 5.7-12.6 7.1-2.1.7-4.3 1-6.4 1.5h-8.2c-2.1-.5-4.2-.8-6.3-1.4-10.5-3.2-17.6-10-21.1-20.5-.6-1.9-1-3.9-1.4-5.9v-7.6zm48.2 4c-.2-1.8-.4-3.5-.7-5.3-.7-3.3-2.3-6.1-4.8-8.3-2-1.7-4.3-2.5-6.8-3-3.6-.7-6.9-.2-9.9 1.5-5.3 3-7.8 7.8-8.2 13.7-.2 3.5.3 6.9 1.9 10 2.2 4.4 5.6 7.3 10.5 7.9 2.3.3 4.7-.1 7-.4 3.3-.4 5.7-2.3 7.6-4.9 2.4-3.3 3.6-7 3.4-11.2zM199.7 181.2c0-7.6-.1-15.1 0-22.6.1-3.9 1.4-6.4 5.4-8 4.2-1.7 9.7.7 11.2 5 .3.8.2 1.8.2 2.7v23.5c0 .5.3.9.4 1.4.4-.3.9-.5 1.2-.8 3.5-4 6.9-8.1 10.3-12.1 4-4.7 7.9-9.5 12-14.2 1.4-1.6 2.8-3.2 4.4-4.5 2.9-2.2 9.4-1.6 11.6 1.6 1 1.5 1.7 3.2 1.7 5 .1 15.3.1 30.7 0 46 0 3.3-1.4 6.1-4.8 7.4-4.3 1.6-9.9.4-11.8-4.8-.3-.8-.2-1.8-.2-2.7V181c0-.5-.2-.9-.4-1.4-.4.3-.9.5-1.2.8-2.6 2.9-5.1 5.8-7.6 8.7-3.4 4-6.8 7.9-10.2 11.9-2.3 2.7-4.6 5.5-7.1 8.1-2.4 2.6-5.4 3.6-9 2.7-2.5-.7-4.5-1.9-5.4-4.3-.4-1-.7-2.2-.8-3.3.1-7.7.1-15.3.1-23zM116.6 103.1c-.9 1-1.7 1.7-2.3 2.5-3.4 3.9-6.8 7.7-10.1 11.6-4.6 5.4-9.2 10.8-13.9 16.1-1.4 1.6-3.2 2.6-5.4 2.7-2.7.1-5.3 0-7.4-1.9-1.6-1.5-2.4-3.4-2.4-5.4-.1-15.5-.1-31 0-46.5 0-4.1 3-7.6 7.6-7.6 2.2 0 4.4.1 6.2 1.5 1.7 1.2 2.8 2.9 2.8 5 .1 8.3.1 16.6.1 24.9v.8c0 .3.2.5.3.7.3-.1.6-.2.8-.4 1-1.1 1.9-2.2 2.8-3.3 3.1-3.7 6.3-7.5 9.4-11.2 4-4.7 8.1-9.3 12-14.1 1.4-1.7 2.9-3.3 5.2-3.8 4.3-.9 8.7-.2 10.6 4.7.4 1.1.6 2.3.6 3.5v46.5c.2 3.1-3.6 6.5-6.4 6.4-2.2-.1-4.5.3-6.5-1-1.8-1.2-3.2-2.6-3.4-4.9-.2-1.9-.4-3.9-.4-5.8-.1-6.6 0-13.2 0-19.8-.1-.1-.2-.4-.2-1.2zM2.9 105.6v-23c0-3.2 2.6-6.6 5.6-7.4.8-.2 1.7-.1 2.5-.1h41.9c2.6 0 4.9.6 6.5 2.7.7.9 1.2 2.1 1.5 3.3 1 3.9.4 7.8.5 11.8.1 11.5.1 23.1 0 34.6 0 2.7-.6 5.4-3.1 7.1-1.1.8-2.2 1.4-3.6 1.4-2.3 0-4.5.4-6.6-1-1.9-1.2-3.2-2.8-3.4-5.1v-1.7-37.5c0-1.6-.1-1.7-1.7-1.7H21.4c-1.5 0-1.6.1-1.6 1.7v36.7c0 1.7.1 3.5-.9 5.1-1.3 2-3 3.5-5.5 3.6-1.2.1-2.5 0-3.7 0-2.8-.1-5.9-2.6-6.2-5.5-.2-1.5-.4-3-.4-4.5-.2-6.9-.2-13.7-.2-20.5zM133.5 181.4v22.8c0 3-1.1 5.3-3.8 6.8-2.6 1.5-8.7 1.4-11-1.7-.7-1-1.3-2.2-1.6-3.4-.4-1.9-.5-3.9-.5-5.9v-33.8c0-1.1-.3-1.5-1.5-1.5-7.1.1-14.2 0-21.4 0-1.7 0-1.7 0-1.7 1.7v38.3c0 2.9-1.8 5.5-4.3 6.3-3.4 1.2-6.8 1.2-9.8-1.1-1.7-1.3-2.6-3.2-2.6-5.2-.1-15.6-.1-31.2 0-46.8 0-2.7 2.2-5.9 5-6.6 1-.2 2.1-.4 3.1-.4h39.3c1.3 0 2.5-.3 3.8-.2 3.4.2 6.8 3.4 6.8 7.4.1 7.8.2 15.5.2 23.3zM288.5 170.7c1.4-1.2 2.6-2.3 3.7-3.4l11.4-11.1c1.8-1.8 3.7-3.7 5.8-4.9 3.6-2.2 9.2-1.3 11.7 2.8 1.5 2.4 1.3 5-.4 7.3-1.1 1.5-2.4 2.9-3.7 4.2-4.1 3.7-8.4 7.4-12.6 11.1-.6.6-1.3 1.1-1.9 1.6-.7.6-.8 1.1-.1 1.7 3.3 3 6.5 6.1 9.8 9.2 2.7 2.5 5.4 5.1 8.2 7.6 1.7 1.5 3.2 3.2 4.3 5.2 1.9 3.6-.3 8.2-3.8 9.3-1.3.4-2.7.8-4 .9-2.7.2-4.9-1.1-6.8-2.9-3.5-3.3-7-6.8-10.5-10.2l-10.3-10c-.1-.1-.3-.2-.6-.4 0 .5-.1.8-.1 1.2 0 4.7.1 9.3 0 14 0 1.7-.4 3.4-1.5 4.9-1.2 1.6-2.7 2.5-4.6 3.1-2.3.7-4.4.3-6.4-.6-2.7-1.1-4.3-3.2-4.2-6.3v-19.3c0-9.3.1-18.5 0-27.8-.1-3.8 2.7-6.5 5.6-7.4 3.3-1 7.6.3 9.7 2.9 1.2 1.5 1.5 3.4 1.5 5.3.1 3.5 0 7.1 0 10.7-.2.3-.2.6-.2 1.3zM382.6 211.8c-3.4.2-6-.9-7.6-3.7-.9-1.5-1.3-3.3-2-5-.2-.6-.3-1.4-.6-1.9-.3-.4-.9-.9-1.3-.9-6.9-.1-13.8 0-20.6 0-.9 0-1.2.4-1.5 1.2-1.1 2.7-1.3 5.9-3.6 8.1-1.4 1.4-3 2.1-5 2.2-2.7.2-5.2-.3-7.3-2.1-1.4-1.2-2.1-2.7-2.3-4.5-.3-2.3.8-4.1 1.6-6 1.4-3.5 2.8-6.9 4.2-10.3 2.8-6.8 5.6-13.5 8.3-20.3 1.6-3.8 3-7.7 4.7-11.5 1.8-3.9 4.8-6.4 9.2-7.1 4.8-.9 8.7.7 11.6 4.5 1.2 1.5 1.8 3.5 2.6 5.3 1.7 4.2 3.4 8.4 5 12.7 1.8 4.6 3.7 9.3 5.6 13.9l6 15c.5 1.3 1.2 2.6 1.1 3.9-.2 2-.9 4-2.8 5.3-1.7.9-3.5 1.4-5.3 1.2zm-16.3-26.5c-.4-1.1-.7-2-1.1-2.9L361 171c-.1-.3-.3-.5-.5-.7-.2.3-.5.5-.6.8-1.1 3-2.2 6.1-3.3 9.2-.6 1.6-1.2 3.3-1.8 5h11.5zM250.6 105.4V81.8c0-2.3 2.2-5.8 4.7-6.2 1.2-.2 2.3-.5 3.5-.5 6.8 0 13.7-.1 20.5.1 2.8.1 5.5 1 8.2 2.3 4.5 2.1 8.1 5.1 10.4 9.6.9 1.8 1.6 3.7 1.7 5.7.1 1.3.5 2.6.4 3.9-.3 6.3-2.8 11.5-8 15.3-2.3 1.7-4.8 3-7.5 3.8-2.1.6-4.3.9-6.5 1-3.1.2-6.2.1-9.2 0-1.1 0-1.4.3-1.4 1.4.1 3.6-.1 7.1.1 10.7.2 3.7-3.3 7.3-7 7.2-2.5-.1-5 .1-7.1-1.7-1.7-1.4-2.7-3.1-2.7-5.3-.1-7.9-.1-15.8-.1-23.7zm17.2-9.7v5.9c0 .9.3 1.2 1.2 1.2 2.5-.1 4.9-.2 7.4-.3 4.3-.1 7.4-5.1 5.7-9-1.3-3-3.9-4.2-6.9-4.4-2.1-.1-4.2 0-6.2 0-.9 0-1.1.3-1.1 1.1-.1 1.8-.1 3.7-.1 5.5zM199.2 105.7V82.3c0-3 2.4-5.8 5-6.6 1-.3 2-.5 3-.6 8.2 0 16.5 0 24.7.1 2.8 0 6.1 2.8 6.3 6.1.2 3.8-1.6 6.7-4.8 7.9-.4.1-.8.3-1.2.3-4.8 0-9.7.1-14.5.1-1.5 0-1.6.1-1.6 1.6 0 1.8.1 3.6 0 5.4 0 1.1.4 1.5 1.5 1.5 4.6 0 9.1-.1 13.7.1 2.8.1 5.2 2.5 6 5 1.1 3.4-.3 5.9-2.8 7.9-1 .7-2.4 1.3-3.6 1.3-4.4.2-8.8.1-13.2.1-1.5 0-1.6.1-1.6 1.6v5.3c0 1.8 0 1.8 1.7 1.8 4.4 0 8.8-.2 13.2 0 3.9.2 6.6 1.3 7.9 5.4.7 2 .3 4.1-1 5.9-1.6 2.2-3.7 3.5-6.6 3.5-8.1-.1-16.2.1-24.2-.1-4.2-.1-6.4-1.8-7.8-5.5-.3-.9-.2-1.9-.2-2.9.1-7.2.1-14.5.1-21.8zM174.7 185.9c0 6.2.1 12.4 0 18.6-.1 3.6-2.1 6.4-6 7.4-2.7.7-5.1.2-7.4-1.1-1.6-.8-2.5-2.2-2.8-3.9-.3-1.7-.5-3.5-.5-5.3v-34.5c0-1.8 0-1.8-1.8-1.8-2.4 0-4.9 0-7.3-.1-3.3-.1-6.4-2.7-6.7-5.8-.5-4.3 1.6-7.3 4.9-8.4 1.2-.4 2.6-.5 3.9-.6 10.4 0 20.7-.1 31.1 0 2.4 0 4.8.6 6.7 2.5 2.5 2.4 2.4 7.5.2 9.9-1.4 1.5-2.9 2.5-5.1 2.4-2.6-.1-5.1.1-7.7 0-1.1 0-1.5.3-1.5 1.4v19.3zM157.9 110.2V91.3c0-1.8 0-1.8-1.9-1.8h-6.5c-3.4 0-5.9-1.4-7.2-4.6-1.5-3.7.4-8.9 4.8-9.7 1.3-.3 2.7-.4 4-.4 10.6 0 21.1-.1 31.7 0 3.1 0 5.5 1.4 7 4.3 2 3.8-.6 9.4-4.4 10.1-1.5.3-3 .4-4.5.4-1.8.1-3.6 0-5.4 0-.9 0-1.3.3-1.3 1.3v37.8c0 2.6-.8 4.7-2.9 6.2-.9.6-2.1 1.2-3.2 1.3-2.3.2-4.7.4-6.9-.9-2.1-1.3-3.3-3.1-3.3-5.5v-19.6z"/><path id="фон" d="M352.7 43.5c2.6-1.6 5.3-3 8.1-4.3l9.3-4.5c7.9-3.8 15.7-7.6 23.6-11.3 14.7-7 29.3-14.1 44-21.1 0 0 16.3-6.7 33.8 3.1 3 1.2 20.5 14.4 21.4 30.8.2 2.3.5 55.6.5 55.6V120s-1.4 20.6-21.9 32.7c-14.7 8.7-29.3 4.6-29.3 4.6s-2.6-.2-6.6-1.8-46.6-22.3-46.6-22.3l-34.8-17.1c-.6-.5-1.2-.9-1.8-1.4-1.4-1.1-2.7-2.2-4-3.3-1.7-1.5-3.4-3.1-4.9-4.7-1.6-1.8-3.2-3.7-4.5-5.7-.6-1-1.2-2-1.7-3.1-.6-1.3-1-2.7-1.5-4.1-.5-1.6-1-3.2-1.4-4.8-.7-2.9-1.1-5.8-1.4-8.7.6-8.3 2.6-17.8 6.8-24.3 3.4-5.5 7.8-9.3 12.9-12.5z" fill="#5690f5"/><circle class="st2" cx="400.4" cy="78.9" r="23"/><path class="st0" d="M400.4 107.4s-28.8.2-30.5 0c-1.7-.2-6.4-2.5-6.4-7 .1-4.5 4.4-7.5 2.6-5.9.9-1 7.8-6.4 7.8-6.4l26.5 19.3z"/><circle class="st2" cx="447.5" cy="78.9" r="23"/><path class="st0" d="M447.5 50.3s28.8-.2 30.5 0c1.7.2 6.4 2.5 6.4 7-.1 4.5-4.4 7.5-2.6 5.9-.9 1-7.8 6.4-7.8 6.4l-26.5-19.3z"/></svg>