<svg version="1.1" id="Layer_1" xmlns="http://www.w3.org/2000/svg" x="0" y="0" viewBox="0 0 100 100" xml:space="preserve"><style>.st1{fill:#fff}</style><path id="фон" d="M12.3 27.5c1.6-1 3.3-1.9 5-2.7 1.9-.9 3.9-1.9 5.8-2.8l14.7-7.2C47 10.3 56.2 5.9 65.3 1.4c0 0 10.1-4.2 21.1 1.9 1.9.8 12.8 9.1 13.4 19.4.1 1.5.3 35.1.3 35.1v17.9s-.9 13-13.7 20.6c-9.2 5.5-18.2 2.9-18.2 2.9s-1.6-.1-4.1-1.1C61.6 97.1 35 84 35 84L13.2 73.4c-.4-.3-.8-.6-1.1-.9-.9-.7-1.7-1.4-2.5-2.1-1.1-.9-2.1-1.9-3.1-3s-2-2.3-2.8-3.6c-.4-.6-.7-1.3-1-1.9-.4-.8-.6-1.7-.9-2.6-.3-1-.6-2-.9-3.1-.4-1.8-.7-3.6-.9-5.5.4-5.3 1.6-11.2 4.2-15.4 2.2-3.4 5-5.8 8.1-7.8z" fill="#5690f5"/><path class="st1" d="M81.6 35.7V37c-.3 1.1-.6 2-1.5 2.8-.3.2-.3.5-.2.8.4 1.6.9 3.2 1.3 4.9.2.9.3 1.9.4 2.8v3.3c0 .1-.1.3-.1.4-.2 1.3-.3 2.6-.6 3.8-2.2 10.7-11.3 19.4-22 21.1-1 .2-2 .3-3.1.4h-3.3c-.5-.1-.9-.1-1.4-.2-2.2-.2-4.3-.7-6.4-1.5-.2-.1-.4-.1-.5 0-.8.9-1.8 1.3-3 1.6h-1.3c-1.1-.2-2.1-.7-2.9-1.5l-9-9c-2-2-2-4.9 0-6.9.3-.3.3-.5.2-.8-1.8-5-2.1-10-1-15.2 2.6-12 13.8-21.3 26.3-21.4 3.4 0 6.7.5 9.9 1.6.3.1.5.2.7-.1 1.8-2 5.1-2.1 7.2.1 2.6 2.7 5.3 5.3 8 8 1.1 1.1 2 2.2 2.3 3.7zm-3.1.6c-.2-.4-.4-.8-.7-1.1l-9-9c-.7-.7-1.6-.7-2.4 0l-.9.9C53.9 38.7 42.2 50.3 30.6 62c-1.1 1.1-1.1 1.9 0 2.9l8.6 8.6c.2.2.5.4.8.6.8.3 1.4 0 2-.6l35.7-35.7c.1-.1.3-.2.4-.4 0-.4.2-.7.4-1.1zm-17.2-9.6c-8-2.6-18.1-.8-25.1 6.8-6.8 7.4-7.5 17.1-5.2 23.5 1.1-1.1 2.2-2.2 3.3-3.4.1-.1.1-.4.1-.5-.5-3.2-.3-6.3.7-9.3 3-9.3 12.4-15.4 22.4-13.7.2 0 .4 0 .5-.1l3.3-3.3zm16 16.1c-.1 0-.1 0-.2-.1L73.8 46c-.1.1-.1.4-.1.5.4 2.2.4 4.5 0 6.7-1.8 10.4-11.4 17.7-21.9 16.4-1.1-.1-1.9.1-2.6.9-.7.9-1.6 1.6-2.5 2.5 9.4 2.4 17.6.7 24.4-6.1 6.9-6.7 8.6-15 6.2-24.1zM53.5 66.6c10.6.4 18-8.8 17.3-17.3C65 55 59.2 60.8 53.5 66.6zM37.3 50.4l17.2-17.2c-9.3-.5-17.6 7.5-17.2 17.2z"/><path class="st1" d="M61.6 43.1c-.8-.8-1.6-1.6-2.3-2.4-.1-.1-.3-.2-.4-.4-.2-.3-.2-.7 0-1 .3-.3.6-.4 1-.1.1.1.2.1.2.2l4.2 4.2c.2.2.4.6.4.8 0 .6-.5.9-1.2.7-1.2-.2-2.5-.5-3.7-.7-.3-.1-.6-.1-1.1-.2l2.4 2.4.4.4c.2.4.2.7-.1 1-.3.3-.6.3-1 .1-.1 0-.1-.1-.2-.2l-4.4-4.4c-.3-.3-.4-.6-.2-1s.5-.5.9-.4c1.5.3 3.1.6 4.6.8.3.2.4.2.5.2zM39.1 60.8c2.2 0 4 1.8 4 4s-1.8 4-4 4-4-1.8-4-4 1.8-4 4-4zm0 1.6c-1.3 0-2.4 1.1-2.4 2.4 0 1.3 1.1 2.4 2.4 2.4 1.3 0 2.4-1.1 2.4-2.4 0-1.3-1-2.4-2.4-2.4zM54.3 50.7c-.2.3-.4.6-.7.8-.3.3-.8.3-1.1 0-.3-.3-.3-.8 0-1.1.4-.5.9-1 1.4-1.4.4-.4.8-.3 1.2.1 1.5 1.6 1.6 3.8.2 5.2-1.5 1.6-4 1.7-5.6.2-1.1-1-1.6-2.3-1.2-3.8.3-1.5 1.3-2.6 2.8-3 .7-.2 1.1 0 1.3.5.1.5-.2.8-.8 1-1 .3-1.7 1.1-1.7 2-.1 1 .4 2 1.3 2.4.9.5 1.9.3 2.7-.3.7-.7.9-1.6.2-2.6zM45.9 59.3c.7 0 1.5.1 2.2.1.7 0 1 .3 1 .9 0 .5-.4.8-1 .7-.9 0-1.8-.1-2.9-.2l1.1 1.1c.4.5.5.9.2 1.3-.4.4-.8.3-1.3-.1L41 58.9c-.6-.6-.6-.9 0-1.5l1-1c.9-.9 2.2-1 3.2-.4s1.3 1.7 1 3c-.3 0-.3.1-.3.3zm-2.3.1c.4-.5 1.1-.8.9-1.6-.1-.2-.4-.5-.6-.6-.7-.2-1 .5-1.4.8.3.5.7.9 1.1 1.4zM66.1 43c-.1-.1-.4-.3-.6-.5-1-2.1-1.9-4.1-2.8-6.2-.2-.4-.1-.7.2-1 .3-.3.7-.3 1.1-.1 1.5.7 3 1.3 4.5 2 .5.2 1 .4 1.5.7.5.2.7.7.5 1.1-.2.4-.6.5-1.2.3-1-.4-1-.4-1.7.3-.3.3-.6.6-1 .9-.2.2-.3.4-.1.6.1.2.2.5.3.7.4.7 0 1.2-.7 1.2zm.8-4.8c-.6-.3-1.2-.6-2-.9.3.7.6 1.3.9 2l1.1-1.1zM72 35.4c.3-.3.6-.7.9-1 .4-.4.8-.4 1.2-.1.3.3.3.8 0 1.2L72.6 37c-.4.4-.8.4-1.3 0l-4.4-4.4c-.4-.4-.4-.8-.1-1.2.3-.4.8-.3 1.2.1l3.5 3.5c.2.1.3.2.5.4zM45.7 52.7c.3.2.5.3.7.4l4.4 4.4c.4.4.4.9.1 1.2-.3.3-.8.3-1.2-.1-1.5-1.4-2.9-2.9-4.4-4.4-.3-.3-.4-.6-.2-1 .1-.2.4-.3.6-.5zM59.6 49.5c0 .7-.6 1.1-1.2.8-.1 0-.2-.1-.2-.2l-4.5-4.5c-.2-.2-.2-.6-.2-.9.1-.2.4-.4.6-.4.3 0 .6.2.8.4 1.3 1.3 2.6 2.5 3.8 3.8.2.2.4.3.5.5.3.2.4.4.4.5z"/></svg>