<svg xmlns="http://www.w3.org/2000/svg" viewBox="0 0 355.3 356.8"><path d="M0 82.7c.6-4.4.9-8.8 1.7-13.1 2.1-10.7 6.9-20.2 14.6-28.1 10.2-10.4 20-21.2 30.9-30.7 16.6-14.5 34.7-14.4 50.7.6 17.1 16 33.4 32.8 49.3 49.9 11.8 12.7 11.7 32.2.2 45.3-8.5 9.7-17.9 18.6-27.1 27.8-1.8 1.8-2.1 2.9-.9 5.3 9.2 18.5 22.1 34.3 36.1 49.3 14.3 15.3 30.1 29 47.9 40.4 5.1 3.2 10.5 5.9 16.1 9 6.9-7 13.4-14 20.4-20.5 5.1-4.8 10.3-9.7 16.3-13.1 12.6-7.1 28-5.3 38.4 4.7 17.5 16.8 34.7 33.9 51.3 51.6 12.3 13.1 12.5 33 .5 46.5-10.5 11.9-21.7 23.2-33.1 34.3-8.7 8.4-19.6 12.9-31.7 14.5-.8.1-1.6.5-2.4.7h-14c-.8-.2-1.6-.5-2.4-.7-8-1.5-16.1-2.4-23.9-4.4-27.7-7.3-53-20.2-77.1-35.4-60.3-38.2-106.7-89.2-139.1-152.8-9.1-17.9-16.2-36.6-20.2-56.4C1.3 100.8.8 94.3 0 87.8v-5.1zm21.8 3.1c.4 4.3.7 8.6 1.2 12.8.2 1.9.7 3.9 1.1 5.8 5.8 26.1 16.8 50.1 30.7 72.7 37.1 60.2 86.4 107.2 150.1 138.5 19.6 9.6 39.9 17.4 61.9 19.4 13.6 1.2 25.6-2 35.3-12.2 8-8.4 16.2-16.5 24.3-24.8 1.2-1.2 2.4-2.5 3.4-3.9 5.2-6.7 5.2-13.8-.5-20.1-5.8-6.4-12-12.4-18.1-18.5-9.5-9.5-18.9-19-28.5-28.4-6.9-6.8-14.3-6.8-21.6-.4-1.1 1-2.2 2-3.2 3.1-8.5 8.4-16.9 16.9-25.4 25.3-5.9 5.8-12.5 7.2-19.6 3.7-7.1-3.6-14.3-7.3-21-11.5-23.1-14.6-43-32.9-60.8-53.4-12.2-14.1-23.4-28.9-31.3-45.9-6.7-14.4-5.8-18.3 5.7-29.4 8.2-7.9 16.4-15.9 24.3-24.3 6.4-6.8 6.2-13.6.2-20.8-.7-.8-1.5-1.7-2.2-2.5-14.4-14.3-28.7-28.6-43.1-43-1.6-1.6-3.5-3.2-5.5-4.3-6.3-3.5-12.8-2-19.3 4.4-8.2 8-16 16.3-24.3 24.2-9.7 9.3-14.3 20.3-13.8 33.5z" fill="#5690f5"/></svg>