<svg xmlns="http://www.w3.org/2000/svg" viewBox="0 0 346.9 346.9"><path d="M271 346.9c-19.8-.5-39.4-5.5-58.2-13.7C138.1 300.7 80.2 248.8 37.3 180 21.7 155 9.5 128.4 2.8 99.6-.4 85.8-1.3 72 2.3 58.1 4.2 51 7.8 44.7 13 39.5c9.9-10 19.9-20 30-29.9 8.5-8.2 18.4-12.4 30-7.5 4.4 1.8 8.5 4.8 11.9 8.1 14.7 14.3 29.1 28.9 43.5 43.4 6.9 7 11.8 14.9 10.3 25.3-1.1 7.4-5.3 13.1-10.4 18.2-8.5 8.5-17 16.9-25.5 25.4-4.5 4.5-4.6 5.5-1.9 11.5 9.7 21.6 24.5 39.6 40.4 56.8 15.7 17 33 32.3 52.7 44.6 6.7 4.2 14 7.6 21 11.4 3.4 1.9 5.9.4 8.3-2 8.8-8.9 17.6-17.7 26.4-26.5 5.1-5.1 10.8-9.2 18.2-10.2 7.7-1 14.3 1.3 20.2 5.9 2 1.5 3.8 3.2 5.6 5 14.2 14.1 28.3 28.2 42.4 42.3 4.7 4.7 8.6 9.8 10 16.4 1.8 8.4-.2 16.2-5.8 22.3-11.1 12-22.5 23.7-34.4 35-9.3 8.9-21.3 11.8-34.9 11.9z" fill="#5690f5"/></svg>