<svg version="1.1" id="Layer_1" xmlns="http://www.w3.org/2000/svg" x="0" y="0" viewBox="0 0 100 100" xml:space="preserve"><style>.st1{fill:none;stroke:#fff;stroke-width:1.6;stroke-miterlimit:10}</style><path id="фон" d="M12.3 27.5c1.6-1 3.3-1.9 5-2.7 1.9-.9 3.9-1.9 5.8-2.8l14.7-7.2C47 10.3 56.2 5.9 65.3 1.4c0 0 10.1-4.2 21.1 1.9 1.9.8 12.8 9.1 13.4 19.4.1 1.5.3 35.1.3 35.1v17.9s-.9 13-13.7 20.6c-9.2 5.5-18.2 2.9-18.2 2.9s-1.6-.1-4.1-1.1C61.6 97.1 35 84 35 84L13.2 73.4c-.4-.3-.8-.6-1.1-.9-.9-.7-1.7-1.4-2.5-2.1-1.1-.9-2.1-1.9-3.1-3s-2-2.3-2.8-3.6c-.4-.6-.7-1.3-1-1.9-.4-.8-.6-1.7-.9-2.6-.3-1-.6-2-.9-3.1-.4-1.8-.7-3.6-.9-5.5.4-5.3 1.6-11.2 4.2-15.4 2.2-3.4 5-5.8 8.1-7.8z" fill="#5690f5"/><path class="st1" d="M77 38.7H29L33.5 26h38.3zM33.6 38.7h39v35h-39zM28 74h50M45.6 45.5h14.9"/><path class="st1" d="M46.8 52.2h12.7v21.6H46.8zM46.8 73.7h-13V57c0-2.8 2.2-5 5-5h3c2.8 0 5 2.2 5 5v16.7zM72.4 73.6H59.5V57c0-2.8 2.2-5 5-5h2.9c2.8 0 5 2.2 5 5v16.6zM33.8 65.1h12.9M59.9 65.1h12.8"/></svg>