<svg xmlns="http://www.w3.org/2000/svg" viewBox="0 0 100 100"><path d="M45.5 0c1.7.2 3.3.4 5 .8 7.7 1.4 14.5 4.8 20.4 10 7 6.3 11.7 14 13.5 23.3 2.5 12.9-.3 24.6-8.4 35-.3.4-.7.9-1 1.3 0 .1-.1.1-.2.4.2.1.6.3.8.6 7.6 7.5 15.1 15.1 22.6 22.6.7.7 1.2 1.5 1.8 2.3v1.4c-.1.3-.2.5-.4.8-.9 1.6-2.8 2-4.3 1-.4-.3-.7-.6-1-.9-7.6-7.7-15.3-15.3-22.9-23-.3-.3-.4-.6-.7-.9-1.4 1.1-2.6 2-3.9 2.9-6.1 4.3-12.9 6.8-20.3 7.4-12.1 1-22.8-2.4-32-10.4C7.4 68.4 2.7 60.6.9 51.3c-2.7-13.8.5-26.1 9.7-36.7C16.8 7.4 24.7 2.9 34 .9c1.6-.3 3.3-.5 5-.7.3 0 .6-.1.8-.2h5.7zm-2.9 79.3c20.1 0 36.7-16.4 36.7-36.6C79.2 22.3 62.8 6.1 42.6 6 22.5 5.9 6 22.4 6 42.6c-.1 20.2 16.4 36.7 36.6 36.7z" fill="#353535" opacity=".6"/></svg>