<?xml version="1.0" encoding="utf-8"?><svg viewBox="0 0 52 52" xmlns="http://www.w3.org/2000/svg" xmlns:xlink="http://www.w3.org/1999/xlink"><style>:root>svg{display:none}:root>svg:target{display:block}</style><svg fill="none" viewBox="0 0 52 52" id="vk_footer" xmlns="http://www.w3.org/2000/svg"><path d="M51.175 25.587c0 14.13-11.458 25.588-25.588 25.588C11.458 51.175 0 39.717 0 25.587 0 11.458 11.458 0 25.587 0c14.13 0 25.588 11.458 25.588 25.587z" fill="#fff"/><path d="M10.207 17.738h5.556c.213 0 .407.128.499.322 1.277 2.775 2.835 5.288 4.71 7.503a.377.377 0 00.669-.055c.584-1.424 1.667-4.886-.426-7.35a.432.432 0 01.152-.676c2.117-.882 4.186-1.01 6.207-.11.425.19.7.61.7 1.078l.474 7.131c0 .317.292.572.602.505 2.325-.493 3.694-3.973 5.045-7.606.164-.45.59-.748 1.065-.748h5.117c.42 0 .755.37.682.785-.481 2.58-3.073 5.92-4.43 7.533a1.491 1.491 0 00-.006 1.923l4.576 5.446a.605.605 0 01-.463.992h-5.793c-.474 0-.93-.201-1.253-.548l-4.053-3.371c-.213-.231-.608-.31-.803-.073-.505.608-.462 1.363-.7 3.073-.073.535-.553.919-1.095.919h-3.961c-.566 0-1.12-.116-1.631-.36-2.27-1.077-8.483-4.898-11.97-15.583a.556.556 0 01.53-.73z" fill="#2A2A2A"/></svg></svg>