<?xml version="1.0" encoding="utf-8"?>
<!-- Generator: Adobe Illustrator 26.0.3, SVG Export Plug-In . SVG Version: 6.00 Build 0)  -->
<svg version="1.1" id="Layer_1" xmlns="http://www.w3.org/2000/svg" xmlns:xlink="http://www.w3.org/1999/xlink" x="0px" y="0px"
	 viewBox="0 0 100 100" style="enable-background:new 0 0 100 100;" xml:space="preserve">
<style type="text/css">
	.st0{fill:#5690F5;}
	.st1{fill:#FFFFFF;}
</style>
<path id="фон" class="st0" d="M12.3,27.5c1.6-1,3.3-1.9,5-2.7c1.9-0.9,3.9-1.9,5.8-2.8c4.9-2.4,9.8-4.8,14.7-7.2
	C47,10.3,56.2,5.9,65.3,1.4c0,0,10.1-4.2,21.1,1.9c1.9,0.8,12.8,9.1,13.4,19.4c0.1,1.5,0.3,35.1,0.3,35.1v17.9c0,0-0.9,13-13.7,20.6
	c-9.2,5.5-18.2,2.9-18.2,2.9s-1.6-0.1-4.1-1.1c-2.5-1-29.1-14.1-29.1-14.1S13.2,73.4,13.2,73.4c-0.4-0.3-0.8-0.6-1.1-0.9
	c-0.9-0.7-1.7-1.4-2.5-2.1c-1.1-0.9-2.1-1.9-3.1-3c-1-1.1-2-2.3-2.8-3.6c-0.4-0.6-0.7-1.3-1-1.9c-0.4-0.8-0.6-1.7-0.9-2.6
	c-0.3-1-0.6-2-0.9-3.1c-0.4-1.8-0.7-3.6-0.9-5.5c0.4-5.3,1.6-11.2,4.2-15.4C6.4,31.9,9.2,29.5,12.3,27.5z"/>
<path class="st1" d="M12,41.8c0.5-1.6,1.6-2.4,3.3-2.7c6.1-1.1,12.2-1.4,18.4-0.9c2.8,0.2,5.7,0.6,8.5,1c1,0.2,2,0.6,2.9,1
	c1,0.4,2,0.9,3,1.4c2.6,1.2,5.2,1.2,7.8,0c1.2-0.6,2.3-1.1,3.5-1.7c2.3-1,4.7-1.4,7.1-1.5c4.4-0.2,8.7-0.4,13.1-0.3
	c3.2,0.1,6.3,0.6,9.4,1.1c1.9,0.3,2.9,1.6,2.9,3.6c0,0.8,0,1.6,0,2.3c0,0.9-0.3,1.6-0.8,2.3c-0.4,0.6-0.7,1.4-0.8,2.1
	c-0.5,2.2-0.9,4.4-1.3,6.7c-0.7,3.6-2.9,5.8-6.3,6.7c-5.9,1.6-11.9,1.6-17.8-0.2c-3.6-1.1-5.9-3.5-7.5-6.7c-1.2-2.4-2.1-4.8-2.6-7.4
	c-0.2-0.9-0.7-1.4-1.6-1.5c-0.6-0.1-1.1-0.1-1.7-0.1c-1.6,0.1-2.1,0.5-2.5,2.1c-0.6,2.7-1.7,5.3-3,7.8c-1.8,3.3-4.5,5.2-8,6.2
	c-4.2,1.1-8.5,1.3-12.8,0.7c-2.1-0.3-4.1-0.7-6-1.7c-2.2-1.2-3.5-3-4-5.4c-0.5-2.4-1-4.8-1.4-7.2c-0.2-0.9-0.4-1.7-1-2.4
	c-0.3-0.4-0.5-0.9-0.7-1.4C12,44.4,12,43.1,12,41.8z M28.7,40.7c-2.2,0.2-4.3,0.3-6.4,0.6c-2.6,0.4-4.4,1.9-5.1,4.6
	c-0.6,2.6-0.4,5.1,0.1,7.6c0.9,4.1,3.4,6.6,7.5,7.4c3.3,0.7,6.5,0.8,9.8,0.2c2.4-0.5,4.8-1.2,6.6-3c3.2-3.3,4.7-7.4,4.7-11.9
	c0-1.4-0.6-2.4-1.9-2.9c-1.6-0.6-3.3-1.3-5-1.5C35.6,41.3,32.1,41.1,28.7,40.7z M76.1,40.8c-3.5,0.3-6.3,0.4-9.2,0.7
	c-2.3,0.2-4.5,0.7-6.6,1.6c-1.6,0.7-2.3,1.9-2.3,3.6c0,2.7,0.9,5.1,1.9,7.5c1.4,3.3,3.8,5.4,7.2,6.4c4.4,1.4,8.9,1.3,13.3,0
	c2.3-0.7,4.1-2,5.1-4.3c1.5-3.2,1.9-6.5,1.2-10c-0.5-2.6-2-4.4-4.6-4.8C80,41.1,77.7,40.9,76.1,40.8z M15.5,43.3
	c-0.7-0.3-1.2-0.5-1.8-0.7c0,0.5,0,0.9,0,1.4C14.3,43.8,14.8,43.6,15.5,43.3z M90.3,42.6c-0.6,0.2-1.1,0.4-1.8,0.7
	c0.7,0.3,1.2,0.5,1.8,0.7C90.3,43.5,90.3,43.1,90.3,42.6z"/>
</svg>
