<svg width="14" height="10" viewBox="0 0 14 10" fill="none" xmlns="http://www.w3.org/2000/svg">
<path d="M4.96614 7.75999L1.67214 4.46799C1.62602 4.42024 1.57085 4.38215 1.50985 4.35594C1.44884 4.32974 1.38323 4.31594 1.31684 4.31537C1.25046 4.31479 1.18462 4.32744 1.12317 4.35258C1.06172 4.37772 1.00589 4.41485 0.958947 4.4618C0.912 4.50874 0.874874 4.56457 0.849733 4.62602C0.824593 4.68746 0.811942 4.7533 0.812519 4.81969C0.813096 4.88608 0.826889 4.95169 0.853093 5.01269C0.879298 5.0737 0.917389 5.12887 0.965144 5.17499L4.96514 9.17499L12.9651 1.17499C13.0562 1.08069 13.1066 0.95439 13.1055 0.823292C13.1043 0.692193 13.0518 0.566788 12.9591 0.474083C12.8664 0.381379 12.7409 0.328795 12.6098 0.327656C12.4787 0.326516 12.3524 0.376914 12.2581 0.467993L4.96514 7.75999H4.96614Z" fill="#5690F5"/>
</svg>
