<?xml version="1.0" encoding="utf-8"?>
<!-- Generator: Adobe Illustrator 26.0.3, SVG Export Plug-In . SVG Version: 6.00 Build 0)  -->
<svg version="1.1" id="Layer_1" xmlns="http://www.w3.org/2000/svg" xmlns:xlink="http://www.w3.org/1999/xlink" x="0px" y="0px"
	 viewBox="0 0 360 360" style="enable-background:new 0 0 360 360;" xml:space="preserve">
<style type="text/css">
	.st0{fill:#5690F5;}
</style>
<path class="st0" d="M0,179.7C0.1,80.4,80.9-0.1,180.3,0C279.7,0.1,360.1,80.8,360,180.3c-0.1,99.4-80.9,179.9-180.3,179.7
	C80.3,359.8-0.1,279.2,0,179.7z M179.9,345c90.9,0.1,165.1-74.1,165.1-165c0-90.8-73.8-164.7-164.7-165
	C89.4,14.8,15.2,88.8,15,179.8C14.9,270.7,89,344.9,179.9,345z"/>
<path class="st0" d="M30,180.1C29.9,97.5,97.2,30.1,179.9,30c82.6-0.1,150.1,67.2,150.1,149.9c0.1,82.9-67.4,150.2-150.6,150.1
	C97.2,329.9,30.1,262.5,30,180.1z M270.5,280.1c-1.6-1.2-2.9-1.9-3.8-2.8c-7.4-7.3-14.7-14.6-22-22c-4.1-4.2-3.7-9.8,0.9-12.4
	c3.2-1.9,6.6-1.3,9.8,1.9c7.6,7.6,15.2,15.2,22.8,22.8c0.8,0.8,1.6,1.4,2.6,2.3c20.6-23.8,32-50.9,34-82.3c-12,0-23.6,0-35.3,0
	c-5.6,0-8.8-2.7-8.9-7.4c-0.1-4.8,3.2-7.6,9-7.6c10.4,0,20.7,0,31.1,0c1.3,0,2.6,0,4.1,0c-2.2-31.7-13.5-58.8-34.2-82.4
	c-1.3,1.2-2.2,2.1-3.1,2.9c-7.4,7.4-14.8,14.9-22.3,22.2c-4.2,4.1-9.8,3.6-12.4-0.9c-1.9-3.3-1.3-6.6,1.9-9.8
	c7.4-7.5,14.8-14.9,22.3-22.3c0.9-0.9,1.8-1.9,2.8-3.1c-23.8-20.7-50.9-32.1-82.3-34.1c0,12,0,23.6,0,35.3c0,5.6-2.7,8.9-7.4,8.9
	c-4.8,0.1-7.6-3.2-7.6-9c0-10.4,0-20.7,0-31.1c0-1.3,0-2.6,0-4.1c-31.7,2.2-58.8,13.5-82.3,34.2c1.2,1.3,2.1,2.2,2.9,3.1
	c7.4,7.4,14.9,14.8,22.2,22.3c4.1,4.2,3.6,9.8-0.9,12.4c-3.3,1.9-6.6,1.3-9.8-1.9c-7.5-7.4-14.9-14.8-22.3-22.3
	c-0.9-0.9-1.9-1.8-3.1-2.8c-20.7,23.8-32.1,50.9-34.1,82.4c12,0,23.6,0,35.3,0c5.6,0,8.9,2.7,8.9,7.4c0.1,4.8-3.2,7.6-9,7.6
	c-10.4,0-20.7,0-31.1,0c-1.3,0-2.6,0-4.1,0c2.2,31.7,13.5,58.8,34.6,82.8c1.2-1.5,2-2.7,3-3.6c7.2-7.3,14.4-14.6,21.8-21.7
	c1.7-1.6,4.7-3.2,6.8-2.9c2.3,0.3,4.9,2.4,6.2,4.5c1.8,2.9,0.4,6-2,8.5c-7.5,7.5-15,15-22.5,22.6c-0.9,0.9-1.8,1.9-2.8,3.1
	c23.8,20.7,50.9,32,82.3,34.1c0-12,0-23.7,0-35.3c0-5.6,2.7-8.9,7.4-8.9c4.8-0.1,7.6,3.2,7.6,9c0,10.4,0,20.7,0,31.1
	c0,1.3,0,2.6,0,4C219.1,312.6,246.2,301.3,270.5,280.1z"/>
<path class="st0" d="M187.5,150.3c0,3.9-0.3,7.8,0.1,11.6c1.3,13.4-1.7,25.8-7.7,37.8c-5.6,11.4-10.1,23.3-15.2,35
	c-1.5,3.4-3.9,5.5-7.8,5.2c-3.5-0.2-5.9-2.3-6.6-5.7c-0.4-1.9,0.1-4.2,0.9-6.1c6.6-15.6,13.3-31.2,19.9-46.8
	c0.8-1.9,1.3-4.1,1.3-6.1c0.1-18,0.1-36,0-53.9c0-3.2,0.8-5.9,3.7-7.7c5.2-3.2,11.3,0.5,11.3,7C187.6,130.5,187.5,140.4,187.5,150.3
	z"/>
</svg>
