<?xml version="1.0" encoding="utf-8"?>
<!-- Generator: Adobe Illustrator 26.0.3, SVG Export Plug-In . SVG Version: 6.00 Build 0)  -->
<svg version="1.1" id="Layer_1" xmlns="http://www.w3.org/2000/svg" xmlns:xlink="http://www.w3.org/1999/xlink" x="0px" y="0px"
	 viewBox="0 0 100 100" style="enable-background:new 0 0 100 100;" xml:space="preserve">
<style type="text/css">
	.st0{fill:#5690F5;}
	.st1{fill:#FFFFFF;}
</style>
<path id="фон" class="st0" d="M12.3,27.5c1.6-1,3.3-1.9,5-2.7c1.9-0.9,3.9-1.9,5.8-2.8c4.9-2.4,9.8-4.8,14.7-7.2
	C47,10.3,56.2,5.9,65.3,1.4c0,0,10.1-4.2,21.1,1.9c1.9,0.8,12.8,9.1,13.4,19.4c0.1,1.5,0.3,35.1,0.3,35.1v17.9c0,0-0.9,13-13.7,20.6
	c-9.2,5.5-18.2,2.9-18.2,2.9s-1.6-0.1-4.1-1.1c-2.5-1-29.1-14.1-29.1-14.1S13.2,73.4,13.2,73.4c-0.4-0.3-0.8-0.6-1.1-0.9
	c-0.9-0.7-1.7-1.4-2.5-2.1c-1.1-0.9-2.1-1.9-3.1-3c-1-1.1-2-2.3-2.8-3.6c-0.4-0.6-0.7-1.3-1-1.9c-0.4-0.8-0.6-1.7-0.9-2.6
	c-0.3-1-0.6-2-0.9-3.1c-0.4-1.8-0.7-3.6-0.9-5.5c0.4-5.3,1.6-11.2,4.2-15.4C6.4,31.9,9.2,29.5,12.3,27.5z"/>
<path class="st1" d="M34.2,67c-1.3,0-2.7,0.2-4,0c-2.8-0.4-4.9-2.9-4.9-5.7c0-8.8,0-17.6,0-26.4c0-3.3,2.6-5.9,5.9-5.9
	c10.2,0,20.4,0,30.7,0c3.3,0,5.9,2.6,5.9,5.9c0,0.9,0,1.8,0,2.8c0.4,0,0.7,0,1,0c1.6,0,3.2,0,4.8,0c2.9,0,5.2,1.8,5.9,4.6
	c0.3,1.3,0.7,2.6,1,4c0.1,0.5,0.3,0.8,0.8,1c1.9,0.8,3.2,2.1,3.7,4c0.1,0.5,0.2,1.1,0.2,1.7c0,2.7,0,5.4,0,8c0,2.7-1.5,4.9-4.1,5.8
	c-0.2,0.1-0.5,0.4-0.6,0.6c-0.9,2.5-3,4.1-5.5,4.1c-2.6,0-4.8-1.5-5.7-4c0-0.1-0.1-0.2-0.2-0.4c-0.2,0-0.4,0-0.6,0
	c-7.4,0-14.7,0-22.1,0c-0.4,0-0.7,0-0.9,0.5c-0.9,2.4-3.1,3.9-5.6,3.9c-2.5,0-4.6-1.5-5.6-3.9C34.4,67.4,34.4,67.2,34.2,67z
	 M64.6,63.8c0-0.3,0-0.5,0-0.8c0-3.8,0-7.7,0-11.5c0-5.5,0-10.9,0-16.4c0-1.7-1.1-2.9-2.8-2.9c-10.2,0-20.3,0-30.5,0
	c-1.6,0-2.7,1.2-2.7,2.7c0,8.7,0,17.4,0,26.2c0,1.6,1.2,2.7,2.7,2.7c0.8,0,1.6,0,2.4,0c0.5,0,0.6-0.2,0.8-0.6
	c0.9-2.2,2.5-3.5,4.9-3.7c2.2-0.3,4.1,0.6,5.4,2.4c0.4,0.6,0.7,1.3,1.1,1.9C52.1,63.8,58.3,63.8,64.6,63.8z M80.6,63.4
	c0.9-0.6,1.4-1.4,1.4-2.4c0-2.7,0-5.4,0-8.1c0-1.1-0.5-2-1.5-2.5c-0.6-0.3-1.1-0.6-1.7-0.9c-0.6-0.3-1-0.8-1.2-1.5
	c-0.4-1.6-0.8-3.3-1.2-4.9c-0.4-1.5-1.4-2.3-2.9-2.3c-1.7,0-3.4,0-5,0c-0.2,0-0.4,0-0.6,0c0,7.7,0,15.2,0,22.8
	c1.2,0.1,1.2,0.1,1.7-0.9c1.2-2.6,4.2-4,7-3.2C78.5,60.2,79.8,61.5,80.6,63.4z M42.8,65.4c0-1.5-1.2-2.7-2.7-2.7
	c-1.5,0-2.7,1.2-2.7,2.7c0,1.5,1.2,2.7,2.7,2.7C41.5,68.2,42.8,66.9,42.8,65.4z M77.7,65.4c0-1.5-1.2-2.7-2.7-2.7
	c-1.5,0-2.7,1.2-2.7,2.7c0,1.5,1.2,2.7,2.7,2.7C76.5,68.2,77.7,66.9,77.7,65.4z"/>
<path class="st1" d="M46.7,46.3c3.6,0,7.1,0,10.7,0c1.3,0,2.1,1.1,1.6,2.2c-0.3,0.6-0.7,0.9-1.3,1c-0.2,0-0.5,0-0.7,0
	c-6.9,0-13.8,0-20.8,0c-0.2,0-0.4,0-0.5,0c-0.9-0.1-1.6-0.7-1.6-1.6c0-0.9,0.7-1.6,1.6-1.6c0.2,0,0.4,0,0.6,0
	C39.7,46.3,43.2,46.3,46.7,46.3z"/>
<path class="st1" d="M51,37.6c2.1,0,4.1,0,6.2,0c1.2,0,1.9,0.7,1.9,1.7c0,1-0.8,1.6-1.9,1.6c-4.2,0-8.4,0-12.6,0
	c-1.1,0-1.9-0.6-1.9-1.6c0-1,0.7-1.6,1.9-1.6C46.8,37.6,48.9,37.6,51,37.6z"/>
</svg>
