<?xml version="1.0" encoding="utf-8"?>
<!-- Generator: Adobe Illustrator 26.0.3, SVG Export Plug-In . SVG Version: 6.00 Build 0)  -->
<svg version="1.1" id="Layer_1" xmlns="http://www.w3.org/2000/svg" xmlns:xlink="http://www.w3.org/1999/xlink" x="0px" y="0px"
	 viewBox="0 0 384 203.7" style="enable-background:new 0 0 384 203.7;" xml:space="preserve">
<style type="text/css">
	.st0{fill:#5690F5;}
</style>
<path class="st0" d="M384,53c-2.9,6.8-8.1,9.1-15.5,9.1C306.1,61.9,243.6,62,181.2,62c-1.5,0-3,0-4.5,0
	c-3.1,11.4-9.1,20.8-18.4,27.8c-27.5,20.7-66.8,8.4-77.5-24.3c-0.9-2.8-2.1-3.6-4.9-3.5c-20.1,0.1-40.2-0.1-60.3,0.2
	C8.1,62.2,2.9,59.8,0,53c0-2,0-4,0-6c2.9-6.8,8.1-9.2,15.5-9.1c20.2,0.3,40.5,0.1,60.7,0.2c2.5,0,3.6-0.6,4.4-3.2
	C87.2,14,106.7-0.2,128.3,0c21.8,0.2,40.6,14.1,47.4,34.9c0.3,0.9,0.6,1.9,1.1,3.1c1.5,0,2.9,0,4.4,0c62.5,0,124.9,0.1,187.4-0.1
	c7.4,0,12.5,2.3,15.5,9.1C384,49,384,51,384,53z M154,49.8c-0.1-14.3-11.8-25.9-26.1-25.8c-14.3,0.1-25.9,12-25.8,26.2
	c0.1,14.2,12,26,26.2,25.8C142.6,75.8,154.1,64.1,154,49.8z"/>
<circle class="st0" cx="128.1" cy="50" r="45"/>
<path class="st0" d="M0,150.5c3.2-6.9,8.7-8.9,16-8.8c62.1,0.2,124.2,0.1,186.3,0.2c3.6,0,5.3-0.8,6.5-4.5
	c6.9-20.2,25.9-33.5,47.2-33.4c21.3,0.1,40.2,13.4,46.9,33.8c1.2,3.4,2.8,4.2,6.1,4.1c19.5-0.2,39,0.1,58.5-0.2
	c7.5-0.1,13.2,1.8,16.4,8.9c0,2,0,4,0,6c-2.7,6.8-7.6,9.4-14.9,9.3c-20.4-0.3-40.7-0.1-61.1-0.1c-2.6,0-3.8,0.6-4.7,3.4
	c-6.7,20.8-25.8,34.7-47.5,34.7c-21.6,0-40.8-13.9-47.4-34.7c-0.9-3-2.4-3.4-5.1-3.3c-62.8,0.1-125.6,0-188.5,0.1
	c-7.3,0-12.2-2.5-14.9-9.3C0,154.5,0,152.5,0,150.5z M256,127.9c-14.4,0-25.9,11.4-26,25.8c0,14.3,11.5,26,25.8,26
	c14.3,0,26-11.7,26.1-25.9C281.9,139.6,270.3,127.9,256,127.9z"/>
<circle class="st0" cx="255.4" cy="153.8" r="45"/>
</svg>
