<svg width="21" height="19" viewBox="0 0 21 19" fill="none" xmlns="http://www.w3.org/2000/svg">
<path d="M15.278 0.448242C13.0596 0.448242 11.2273 2.50879 10.4863 3.48129C9.74535 2.50879 7.91309 0.448242 5.69465 0.448242C2.82277 0.448242 0.486328 3.08863 0.486328 6.33367C0.486328 8.1041 1.18906 9.75406 2.4191 10.8832C2.43699 10.9142 2.45898 10.9427 2.48461 10.9683L10.1921 18.6599C10.2735 18.7409 10.3797 18.7816 10.4863 18.7816C10.5929 18.7816 10.6995 18.7409 10.7809 18.6595L18.7448 10.6985L18.827 10.6187C18.8921 10.5573 18.9564 10.495 19.0284 10.4153C19.0585 10.3856 19.0833 10.3522 19.1025 10.316C19.9956 9.22226 20.4863 7.81152 20.4863 6.33367C20.4863 3.08863 18.1499 0.448242 15.278 0.448242ZM18.4091 9.84726C18.3977 9.8607 18.3871 9.87492 18.3778 9.88957C18.3387 9.93433 18.296 9.97379 18.2537 10.0141L10.4859 17.7761L3.16863 10.4735C3.14504 10.4271 3.11207 10.3848 3.0718 10.3494C1.95809 9.37687 1.31965 7.91324 1.31965 6.33367C1.31965 3.54801 3.28215 1.2816 5.69465 1.2816C8.07992 1.2816 10.1156 4.39277 10.136 4.4241C10.2898 4.66172 10.6829 4.66172 10.8367 4.4241C10.857 4.39277 12.8927 1.2816 15.278 1.2816C17.6905 1.2816 19.653 3.54805 19.653 6.33367C19.653 7.64633 19.2111 8.8943 18.4091 9.84726Z" fill="#5690F5"/>
</svg>
