<svg width="31" height="31" viewBox="0 0 31 31" fill="none" xmlns="http://www.w3.org/2000/svg">
<path d="M23.6577 13.0088C23.6577 10.771 22.7688 8.62491 21.1864 7.04258C19.6041 5.46024 17.458 4.57129 15.2202 4.57129C12.9825 4.57129 10.8363 5.46024 9.254 7.04258C7.67166 8.62491 6.78271 10.771 6.78271 13.0088C6.78271 16.47 9.55209 20.9813 15.2202 26.385C20.8883 20.9813 23.6577 16.47 23.6577 13.0088ZM15.2202 28.9463C8.34459 22.6969 4.90771 17.3832 4.90771 13.0088C4.90771 10.2737 5.99421 7.65072 7.92818 5.71675C9.86214 3.78278 12.4852 2.69629 15.2202 2.69629C17.9553 2.69629 20.5783 3.78278 22.5123 5.71675C24.4462 7.65072 25.5327 10.2737 25.5327 13.0088C25.5327 17.3832 22.0958 22.6969 15.2202 28.9463Z" fill="#232323"/>
<path d="M15.2202 15.8213C15.9661 15.8213 16.6815 15.525 17.209 14.9975C17.7364 14.4701 18.0327 13.7547 18.0327 13.0088C18.0327 12.2629 17.7364 11.5475 17.209 11.0201C16.6815 10.4926 15.9661 10.1963 15.2202 10.1963C14.4743 10.1963 13.7589 10.4926 13.2315 11.0201C12.704 11.5475 12.4077 12.2629 12.4077 13.0088C12.4077 13.7547 12.704 14.4701 13.2315 14.9975C13.7589 15.525 14.4743 15.8213 15.2202 15.8213ZM15.2202 17.6963C13.977 17.6963 12.7847 17.2024 11.9057 16.3234C11.0266 15.4443 10.5327 14.252 10.5327 13.0088C10.5327 11.7656 11.0266 10.5733 11.9057 9.69423C12.7847 8.81515 13.977 8.32129 15.2202 8.32129C16.4634 8.32129 17.6557 8.81515 18.5348 9.69423C19.4139 10.5733 19.9077 11.7656 19.9077 13.0088C19.9077 14.252 19.4139 15.4443 18.5348 16.3234C17.6557 17.2024 16.4634 17.6963 15.2202 17.6963Z" fill="#232323"/>
</svg>
