<?xml version="1.0" encoding="utf-8"?>
<!-- Generator: Adobe Illustrator 26.0.3, SVG Export Plug-In . SVG Version: 6.00 Build 0)  -->
<svg version="1.1" id="Layer_1" xmlns="http://www.w3.org/2000/svg" xmlns:xlink="http://www.w3.org/1999/xlink" x="0px" y="0px"
	 viewBox="0 0 76.1 76.1" style="enable-background:new 0 0 76.1 76.1;" xml:space="preserve">
<style type="text/css">
	.st0{fill:#5690F5;}
</style>
<path class="st0" d="M76.1,35.9c0,1.5,0,3.1,0,4.6c0,0.2-0.1,0.3-0.1,0.5c-0.3,4-1.1,7.9-2.7,11.6c-5.5,12.6-15,20.2-28.4,22.9
	c-1.4,0.3-2.9,0.4-4.4,0.6c-1.5,0-3.1,0-4.6,0c-0.2,0-0.3-0.1-0.5-0.1c-5.9-0.4-11.4-2.2-16.5-5.1C5.9,63.5-1.5,48.6,0.3,33.8
	c1.1-9.3,5.1-17.2,11.9-23.5C20.5,2.5,30.5-0.8,41.8,0.2c6.1,0.5,11.8,2.6,16.9,6.1c9.1,6.2,14.9,14.6,16.9,25.5
	C75.8,33.2,75.9,34.6,76.1,35.9z M70.9,38.2C70.9,20.1,56.1,5,38.2,5c-18,0-32.9,15-33,33.2c0,18,14.8,32.8,32.9,32.8
	C56.1,71,70.9,56.2,70.9,38.2z"/>
<path class="st0" d="M50.4,30.6c-0.1,0.2-0.2,0.5-0.4,0.7c-2.9,5.9-5.8,11.9-8.7,17.8c-0.3,0.6-0.6,1.2-1,1.6
	c-1.4,1.5-3.7,1.3-4.9-0.4c-0.3-0.4-0.5-0.8-0.7-1.2c-2.9-5.9-5.8-11.9-8.7-17.8c-0.1-0.2-0.2-0.4-0.5-0.7c0,0.3,0,0.5,0,0.8
	c0,7.7,0,15.5,0,23.2c0,3-2.8,3.8-4.6,3.1c-1.1-0.4-1.7-1.2-1.7-2.4c0-0.3,0-0.6,0-0.9c0-10.6,0-21.3,0-31.9c0-0.4,0-0.8,0-1.3
	c0.1-1.5,1.1-2.7,2.5-3c2.8-0.7,4.5,0.1,5.6,2.2c2,4.1,4,8.2,6,12.3c1.5,3,2.9,6.1,4.4,9.1c0.1,0.2,0.2,0.4,0.4,0.8
	c0.2-0.3,0.3-0.5,0.4-0.8c3.2-6.7,6.4-13.4,9.7-20.1c0.4-0.8,0.8-1.6,1.4-2.3c1.1-1.4,3.1-1.8,5-1.1c1.5,0.5,2.4,1.7,2.4,3.6
	c0,3.7,0,7.5,0,11.2c0,7.2,0,14.4,0,21.6c0,1.2-0.3,2.3-1.5,2.9c-1.2,0.6-2.4,0.5-3.6-0.2c-0.8-0.5-1.2-1.2-1.3-2.1c0-0.3,0-0.7,0-1
	c0-7.6,0-15.2,0-22.8c0-0.3,0-0.5,0-0.8C50.6,30.7,50.5,30.7,50.4,30.6z"/>
</svg>
