<svg width="14" height="14" viewBox="0 0 14 14" fill="none" xmlns="http://www.w3.org/2000/svg">
<path d="M0.812516 0.812272C1.04693 0.577933 1.36481 0.446289 1.69627 0.446289C2.02772 0.446289 2.34561 0.577933 2.58002 0.812272L7.00002 5.23227L11.42 0.812272C11.6558 0.584574 11.9715 0.458582 12.2993 0.46143C12.627 0.464278 12.9405 0.595739 13.1723 0.827499C13.404 1.05926 13.5355 1.37277 13.5384 1.70052C13.5412 2.02827 13.4152 2.34402 13.1875 2.57977L8.76752 6.99977L13.1875 11.4198C13.4152 11.6555 13.5412 11.9713 13.5384 12.299C13.5355 12.6268 13.404 12.9403 13.1723 13.172C12.9405 13.4038 12.627 13.5353 12.2993 13.5381C11.9715 13.541 11.6558 13.415 11.42 13.1873L7.00002 8.76727L2.58002 13.1873C2.34426 13.415 2.02851 13.541 1.70076 13.5381C1.37302 13.5353 1.0595 13.4038 0.827743 13.172C0.595983 12.9403 0.464522 12.6268 0.461674 12.299C0.458826 11.9713 0.584819 11.6555 0.812516 11.4198L5.23252 6.99977L0.812516 2.57977C0.578177 2.34536 0.446533 2.02748 0.446533 1.69602C0.446533 1.36457 0.578177 1.04668 0.812516 0.812272Z" fill="black"/>
</svg>
