<svg width="21" height="20" viewBox="0 0 21 20" fill="none" xmlns="http://www.w3.org/2000/svg">
<path d="M1.30288 0.751123C1.6545 0.399615 2.13132 0.202148 2.62851 0.202148C3.12569 0.202148 3.60252 0.399615 3.95413 0.751123L10.5841 7.38112L17.2141 0.751123C17.5678 0.409576 18.0414 0.220587 18.533 0.224859C19.0246 0.229131 19.4949 0.426323 19.8425 0.773963C20.1902 1.1216 20.3874 1.59188 20.3916 2.0835C20.3959 2.57511 20.2069 3.04874 19.8654 3.40237L13.2354 10.0324L19.8654 16.6624C20.2069 17.016 20.3959 17.4896 20.3916 17.9812C20.3874 18.4729 20.1902 18.9431 19.8425 19.2908C19.4949 19.6384 19.0246 19.8356 18.533 19.8399C18.0414 19.8442 17.5678 19.6552 17.2141 19.3136L10.5841 12.6836L3.95413 19.3136C3.6005 19.6552 3.12687 19.8442 2.63525 19.8399C2.14363 19.8356 1.67336 19.6384 1.32572 19.2908C0.978081 18.9431 0.780889 18.4729 0.776617 17.9812C0.772345 17.4896 0.961334 17.016 1.30288 16.6624L7.93288 10.0324L1.30288 3.40237C0.951372 3.05076 0.753906 2.57393 0.753906 2.07675C0.753906 1.57957 0.951372 1.10274 1.30288 0.751123Z" fill="#232323" fill-opacity="0.5"/>
</svg>
