<?xml version="1.0" encoding="utf-8"?>
<!-- Generator: Adobe Illustrator 26.0.3, SVG Export Plug-In . SVG Version: 6.00 Build 0)  -->
<svg version="1.1" id="Layer_1" xmlns="http://www.w3.org/2000/svg" xmlns:xlink="http://www.w3.org/1999/xlink" x="0px" y="0px"
	 viewBox="0 0 100 100" style="enable-background:new 0 0 100 100;" xml:space="preserve">
<style type="text/css">
	.st0{fill:#5690F5;}
	.st1{fill:#FFFFFF;}
</style>
<path id="фон" class="st0" d="M12.3,27.5c1.6-1,3.3-1.9,5-2.7c1.9-0.9,3.9-1.9,5.8-2.8c4.9-2.4,9.8-4.8,14.7-7.2
	C47,10.3,56.2,5.9,65.3,1.4c0,0,10.1-4.2,21.1,1.9c1.9,0.8,12.8,9.1,13.4,19.4c0.1,1.5,0.3,35.1,0.3,35.1v17.9c0,0-0.9,13-13.7,20.6
	c-9.2,5.5-18.2,2.9-18.2,2.9s-1.6-0.1-4.1-1.1c-2.5-1-29.1-14.1-29.1-14.1S13.2,73.4,13.2,73.4c-0.4-0.3-0.8-0.6-1.1-0.9
	c-0.9-0.7-1.7-1.4-2.5-2.1c-1.1-0.9-2.1-1.9-3.1-3c-1-1.1-2-2.3-2.8-3.6c-0.4-0.6-0.7-1.3-1-1.9c-0.4-0.8-0.6-1.7-0.9-2.6
	c-0.3-1-0.6-2-0.9-3.1c-0.4-1.8-0.7-3.6-0.9-5.5c0.4-5.3,1.6-11.2,4.2-15.4C6.4,31.9,9.2,29.5,12.3,27.5z"/>
<path class="st1" d="M81.6,35.7c0,0.4,0,0.9,0,1.3c-0.3,1.1-0.6,2-1.5,2.8c-0.3,0.2-0.3,0.5-0.2,0.8c0.4,1.6,0.9,3.2,1.3,4.9
	c0.2,0.9,0.3,1.9,0.4,2.8c0,1.1,0,2.2,0,3.3c0,0.1-0.1,0.3-0.1,0.4c-0.2,1.3-0.3,2.6-0.6,3.8c-2.2,10.7-11.3,19.4-22,21.1
	c-1,0.2-2,0.3-3.1,0.4c-1.1,0-2.2,0-3.3,0c-0.5-0.1-0.9-0.1-1.4-0.2c-2.2-0.2-4.3-0.7-6.4-1.5c-0.2-0.1-0.4-0.1-0.5,0
	c-0.8,0.9-1.8,1.3-3,1.6c-0.4,0-0.9,0-1.3,0c-1.1-0.2-2.1-0.7-2.9-1.5c-3-3-6-6-9-9c-2-2-2-4.9,0-6.9c0.3-0.3,0.3-0.5,0.2-0.8
	c-1.8-5-2.1-10-1-15.2C29.8,31.8,41,22.5,53.5,22.4c3.4,0,6.7,0.5,9.9,1.6c0.3,0.1,0.5,0.2,0.7-0.1c1.8-2,5.1-2.1,7.2,0.1
	c2.6,2.7,5.3,5.3,8,8C80.4,33.1,81.3,34.2,81.6,35.7z M78.5,36.3c-0.2-0.4-0.4-0.8-0.7-1.1c-3-3-6-6-9-9c-0.7-0.7-1.6-0.7-2.4,0
	c-0.3,0.3-0.6,0.6-0.9,0.9C53.9,38.7,42.2,50.3,30.6,62c-1.1,1.1-1.1,1.9,0,2.9c2.9,2.9,5.7,5.7,8.6,8.6c0.2,0.2,0.5,0.4,0.8,0.6
	c0.8,0.3,1.4,0,2-0.6c11.9-11.9,23.8-23.8,35.7-35.7c0.1-0.1,0.3-0.2,0.4-0.4C78.1,37,78.3,36.7,78.5,36.3z M61.3,26.7
	c-8-2.6-18.1-0.8-25.1,6.8c-6.8,7.4-7.5,17.1-5.2,23.5c1.1-1.1,2.2-2.2,3.3-3.4c0.1-0.1,0.1-0.4,0.1-0.5c-0.5-3.2-0.3-6.3,0.7-9.3
	c3-9.3,12.4-15.4,22.4-13.7c0.2,0,0.4,0,0.5-0.1C59,29,60.1,27.9,61.3,26.7z M77.3,42.8c-0.1,0-0.1,0-0.2-0.1
	c-1.1,1.1-2.2,2.2-3.3,3.3c-0.1,0.1-0.1,0.4-0.1,0.5c0.4,2.2,0.4,4.5,0,6.7c-1.8,10.4-11.4,17.7-21.9,16.4c-1.1-0.1-1.9,0.1-2.6,0.9
	c-0.7,0.9-1.6,1.6-2.5,2.5c9.4,2.4,17.6,0.7,24.4-6.1C78,60.2,79.7,51.9,77.3,42.8z M53.5,66.6c10.6,0.4,18-8.8,17.3-17.3
	C65,55,59.2,60.8,53.5,66.6z M37.3,50.4c5.7-5.7,11.5-11.5,17.2-17.2C45.2,32.7,36.9,40.7,37.3,50.4z"/>
<path class="st1" d="M61.6,43.1c-0.8-0.8-1.6-1.6-2.3-2.4c-0.1-0.1-0.3-0.2-0.4-0.4c-0.2-0.3-0.2-0.7,0-1c0.3-0.3,0.6-0.4,1-0.1
	c0.1,0.1,0.2,0.1,0.2,0.2c1.4,1.4,2.8,2.8,4.2,4.2c0.2,0.2,0.4,0.6,0.4,0.8c0,0.6-0.5,0.9-1.2,0.7c-1.2-0.2-2.5-0.5-3.7-0.7
	c-0.3-0.1-0.6-0.1-1.1-0.2c0.9,0.9,1.6,1.6,2.4,2.4c0.1,0.1,0.3,0.3,0.4,0.4c0.2,0.4,0.2,0.7-0.1,1c-0.3,0.3-0.6,0.3-1,0.1
	c-0.1,0-0.1-0.1-0.2-0.2c-1.5-1.5-2.9-2.9-4.4-4.4c-0.3-0.3-0.4-0.6-0.2-1c0.2-0.4,0.5-0.5,0.9-0.4c1.5,0.3,3.1,0.6,4.6,0.8
	C61.4,43.1,61.5,43.1,61.6,43.1z"/>
<path class="st1" d="M39.1,60.8c2.2,0,4,1.8,4,4c0,2.2-1.8,4-4,4c-2.2,0-4-1.8-4-4C35.1,62.6,36.9,60.8,39.1,60.8z M39.1,62.4
	c-1.3,0-2.4,1.1-2.4,2.4c0,1.3,1.1,2.4,2.4,2.4c1.3,0,2.4-1.1,2.4-2.4C41.5,63.5,40.5,62.4,39.1,62.4z"/>
<path class="st1" d="M54.3,50.7c-0.2,0.3-0.4,0.6-0.7,0.8c-0.3,0.3-0.8,0.3-1.1,0c-0.3-0.3-0.3-0.8,0-1.1c0.4-0.5,0.9-1,1.4-1.4
	c0.4-0.4,0.8-0.3,1.2,0.1c1.5,1.6,1.6,3.8,0.2,5.2c-1.5,1.6-4,1.7-5.6,0.2c-1.1-1-1.6-2.3-1.2-3.8c0.3-1.5,1.3-2.6,2.8-3
	c0.7-0.2,1.1,0,1.3,0.5c0.1,0.5-0.2,0.8-0.8,1c-1,0.3-1.7,1.1-1.7,2c-0.1,1,0.4,2,1.3,2.4c0.9,0.5,1.9,0.3,2.7-0.3
	C54.8,52.6,55,51.7,54.3,50.7z"/>
<path class="st1" d="M45.9,59.3c0.7,0,1.5,0.1,2.2,0.1c0.7,0,1,0.3,1,0.9c0,0.5-0.4,0.8-1,0.7c-0.9,0-1.8-0.1-2.9-0.2
	c0.4,0.4,0.8,0.8,1.1,1.1c0.4,0.5,0.5,0.9,0.2,1.3c-0.4,0.4-0.8,0.3-1.3-0.1c-1.4-1.4-2.8-2.8-4.2-4.2c-0.6-0.6-0.6-0.9,0-1.5
	c0.3-0.3,0.7-0.7,1-1c0.9-0.9,2.2-1,3.2-0.4c1,0.6,1.3,1.7,1,3C45.9,59,45.9,59.1,45.9,59.3z M43.6,59.4c0.4-0.5,1.1-0.8,0.9-1.6
	c-0.1-0.2-0.4-0.5-0.6-0.6c-0.7-0.2-1,0.5-1.4,0.8C42.8,58.5,43.2,58.9,43.6,59.4z"/>
<path class="st1" d="M66.1,43c-0.1-0.1-0.4-0.3-0.6-0.5c-1-2.1-1.9-4.1-2.8-6.2c-0.2-0.4-0.1-0.7,0.2-1c0.3-0.3,0.7-0.3,1.1-0.1
	c1.5,0.7,3,1.3,4.5,2c0.5,0.2,1,0.4,1.5,0.7c0.5,0.2,0.7,0.7,0.5,1.1c-0.2,0.4-0.6,0.5-1.2,0.3c-1-0.4-1-0.4-1.7,0.3
	c-0.3,0.3-0.6,0.6-1,0.9c-0.2,0.2-0.3,0.4-0.1,0.6c0.1,0.2,0.2,0.5,0.3,0.7C67.2,42.5,66.8,43,66.1,43z M66.9,38.2
	c-0.6-0.3-1.2-0.6-2-0.9c0.3,0.7,0.6,1.3,0.9,2C66.2,38.9,66.5,38.6,66.9,38.2z"/>
<path class="st1" d="M72,35.4c0.3-0.3,0.6-0.7,0.9-1c0.4-0.4,0.8-0.4,1.2-0.1c0.3,0.3,0.3,0.8,0,1.2c-0.5,0.5-1,1-1.5,1.5
	c-0.4,0.4-0.8,0.4-1.3,0c-1.5-1.5-2.9-2.9-4.4-4.4c-0.4-0.4-0.4-0.8-0.1-1.2c0.3-0.4,0.8-0.3,1.2,0.1c1.2,1.2,2.3,2.3,3.5,3.5
	C71.7,35.1,71.8,35.2,72,35.4z"/>
<path class="st1" d="M45.7,52.7c0.3,0.2,0.5,0.3,0.7,0.4c1.5,1.5,2.9,2.9,4.4,4.4c0.4,0.4,0.4,0.9,0.1,1.2c-0.3,0.3-0.8,0.3-1.2-0.1
	c-1.5-1.4-2.9-2.9-4.4-4.4c-0.3-0.3-0.4-0.6-0.2-1C45.2,53,45.5,52.9,45.7,52.7z"/>
<path class="st1" d="M59.6,49.5c0,0.7-0.6,1.1-1.2,0.8c-0.1,0-0.2-0.1-0.2-0.2c-1.5-1.5-3-3-4.5-4.5c-0.2-0.2-0.2-0.6-0.2-0.9
	c0.1-0.2,0.4-0.4,0.6-0.4c0.3,0,0.6,0.2,0.8,0.4c1.3,1.3,2.6,2.5,3.8,3.8c0.2,0.2,0.4,0.3,0.5,0.5C59.5,49.2,59.6,49.4,59.6,49.5z"
	/>
</svg>
