<?xml version="1.0" encoding="utf-8"?>
<!-- Generator: Adobe Illustrator 26.0.3, SVG Export Plug-In . SVG Version: 6.00 Build 0)  -->
<svg version="1.1" id="Layer_1" xmlns="http://www.w3.org/2000/svg" xmlns:xlink="http://www.w3.org/1999/xlink" x="0px" y="0px"
	 viewBox="0 0 346.9 346.9" style="enable-background:new 0 0 346.9 346.9;" xml:space="preserve">
<style type="text/css">
	.st0{fill:#5690F5;}
</style>
<path class="st0" d="M271,346.9c-19.8-0.5-39.4-5.5-58.2-13.7C138.1,300.7,80.2,248.8,37.3,180c-15.6-25-27.8-51.6-34.5-80.4
	c-3.2-13.8-4.1-27.6-0.5-41.5c1.9-7.1,5.5-13.4,10.7-18.6c9.9-10,19.9-20,30-29.9C51.5,1.4,61.4-2.8,73,2.1
	c4.4,1.8,8.5,4.8,11.9,8.1c14.7,14.3,29.1,28.9,43.5,43.4c6.9,7,11.8,14.9,10.3,25.3c-1.1,7.4-5.3,13.1-10.4,18.2
	c-8.5,8.5-17,16.9-25.5,25.4c-4.5,4.5-4.6,5.5-1.9,11.5c9.7,21.6,24.5,39.6,40.4,56.8c15.7,17,33,32.3,52.7,44.6
	c6.7,4.2,14,7.6,21,11.4c3.4,1.9,5.9,0.4,8.3-2c8.8-8.9,17.6-17.7,26.4-26.5c5.1-5.1,10.8-9.2,18.2-10.2c7.7-1,14.3,1.3,20.2,5.9
	c2,1.5,3.8,3.2,5.6,5c14.2,14.1,28.3,28.2,42.4,42.3c4.7,4.7,8.6,9.8,10,16.4c1.8,8.4-0.2,16.2-5.8,22.3c-11.1,12-22.5,23.7-34.4,35
	C296.6,343.9,284.6,346.8,271,346.9z"/>
</svg>
