<?xml version="1.0" encoding="utf-8"?>
<!-- Generator: Adobe Illustrator 26.0.3, SVG Export Plug-In . SVG Version: 6.00 Build 0)  -->
<svg version="1.1" id="Layer_1" xmlns="http://www.w3.org/2000/svg" xmlns:xlink="http://www.w3.org/1999/xlink" x="0px" y="0px"
	 viewBox="0 0 100 100" style="enable-background:new 0 0 100 100;" xml:space="preserve">
<style type="text/css">
	.st0{fill:#5690F5;}
	.st1{fill:none;stroke:#FFFFFF;stroke-width:1.6;stroke-miterlimit:10;}
</style>
<path id="фон" class="st0" d="M12.3,27.5c1.6-1,3.3-1.9,5-2.7c1.9-0.9,3.9-1.9,5.8-2.8c4.9-2.4,9.8-4.8,14.7-7.2
	C47,10.3,56.2,5.9,65.3,1.4c0,0,10.1-4.2,21.1,1.9c1.9,0.8,12.8,9.1,13.4,19.4c0.1,1.5,0.3,35.1,0.3,35.1v17.9c0,0-0.9,13-13.7,20.6
	c-9.2,5.5-18.2,2.9-18.2,2.9s-1.6-0.1-4.1-1.1c-2.5-1-29.1-14.1-29.1-14.1S13.2,73.4,13.2,73.4c-0.4-0.3-0.8-0.6-1.1-0.9
	c-0.9-0.7-1.7-1.4-2.5-2.1c-1.1-0.9-2.1-1.9-3.1-3c-1-1.1-2-2.3-2.8-3.6c-0.4-0.6-0.7-1.3-1-1.9c-0.4-0.8-0.6-1.7-0.9-2.6
	c-0.3-1-0.6-2-0.9-3.1c-0.4-1.8-0.7-3.6-0.9-5.5c0.4-5.3,1.6-11.2,4.2-15.4C6.4,31.9,9.2,29.5,12.3,27.5z"/>
<polygon class="st1" points="77,38.7 29,38.7 33.5,26 71.8,26 "/>
<rect x="33.6" y="38.7" class="st1" width="39" height="35"/>
<line class="st1" x1="28" y1="74" x2="78" y2="74"/>
<line class="st1" x1="45.6" y1="45.5" x2="60.5" y2="45.5"/>
<rect x="46.8" y="52.2" class="st1" width="12.7" height="21.6"/>
<path class="st1" d="M46.8,73.7h-13V57c0-2.8,2.2-5,5-5h3c2.8,0,5,2.2,5,5V73.7z"/>
<path class="st1" d="M72.4,73.6H59.5V57c0-2.8,2.2-5,5-5h2.9c2.8,0,5,2.2,5,5V73.6z"/>
<line class="st1" x1="33.8" y1="65.1" x2="46.7" y2="65.1"/>
<line class="st1" x1="59.9" y1="65.1" x2="72.7" y2="65.1"/>
</svg>
