<?xml version="1.0" encoding="utf-8"?>
<!-- Generator: Adobe Illustrator 26.0.3, SVG Export Plug-In . SVG Version: 6.00 Build 0)  -->
<svg version="1.1" id="Layer_1" xmlns="http://www.w3.org/2000/svg" xmlns:xlink="http://www.w3.org/1999/xlink" x="0px" y="0px"
	 viewBox="0 0 100 100" style="enable-background:new 0 0 100 100;" xml:space="preserve">
<style type="text/css">
	.st0{fill:#353535;opacity: 0.6}
</style>
<path class="st0" d="M45.5,0c1.7,0.2,3.3,0.4,5,0.8c7.7,1.4,14.5,4.8,20.4,10c7,6.3,11.7,14,13.5,23.3C86.9,47,84.1,58.7,76,69.1
	c-0.3,0.4-0.7,0.9-1,1.3c0,0.1-0.1,0.1-0.2,0.4c0.2,0.1,0.6,0.3,0.8,0.6c7.6,7.5,15.1,15.1,22.6,22.6c0.7,0.7,1.2,1.5,1.8,2.3
	c0,0.5,0,0.9,0,1.4c-0.1,0.3-0.2,0.5-0.4,0.8c-0.9,1.6-2.8,2-4.3,1c-0.4-0.3-0.7-0.6-1-0.9C86.7,90.9,79,83.3,71.4,75.6
	c-0.3-0.3-0.4-0.6-0.7-0.9c-1.4,1.1-2.6,2-3.9,2.9c-6.1,4.3-12.9,6.8-20.3,7.4c-12.1,1-22.8-2.4-32-10.4c-7.1-6.2-11.8-14-13.6-23.3
	c-2.7-13.8,0.5-26.1,9.7-36.7C16.8,7.4,24.7,2.9,34,0.9c1.6-0.3,3.3-0.5,5-0.7c0.3,0,0.6-0.1,0.8-0.2C41.7,0,43.6,0,45.5,0z
	 M42.6,79.3c20.1,0,36.7-16.4,36.7-36.6C79.2,22.3,62.8,6.1,42.6,6C22.5,5.9,6,22.4,6,42.6C5.9,62.8,22.4,79.3,42.6,79.3z"/>
</svg>
