<svg width="22" height="19" viewBox="0 0 22 19" fill="none" xmlns="http://www.w3.org/2000/svg">
<path d="M16.5657 0.667225C16.2533 0.354805 15.7467 0.354805 15.4343 0.667225L10.3431 5.75839C10.0307 6.07081 10.0307 6.57734 10.3431 6.88976C10.6556 7.20218 11.1621 7.20218 11.4745 6.88976L16 2.36428L20.5255 6.88976C20.8379 7.20218 21.3444 7.20218 21.6569 6.88976C21.9693 6.57734 21.9693 6.07081 21.6569 5.75839L16.5657 0.667225ZM16.8 17.2329V1.23291H15.2V17.2329H16.8Z" fill="#5690F5"/>
<path d="M5.43431 17.7986C5.74673 18.111 6.25327 18.111 6.56569 17.7986L11.6569 12.7074C11.9693 12.395 11.9693 11.8885 11.6569 11.5761C11.3444 11.2636 10.8379 11.2636 10.5255 11.5761L6 16.1015L1.47452 11.5761C1.1621 11.2636 0.655565 11.2636 0.343146 11.5761C0.0307264 11.8885 0.0307264 12.395 0.343146 12.7074L5.43431 17.7986ZM5.2 1.23291L5.2 17.2329H6.8L6.8 1.23291H5.2Z" fill="#5690F5"/>
</svg>
