<?xml version="1.0" standalone="no"?>
<!DOCTYPE svg PUBLIC "-//W3C//DTD SVG 20010904//EN"
 "http://www.w3.org/TR/2001/REC-SVG-20010904/DTD/svg10.dtd">
<svg version="1.0" xmlns="http://www.w3.org/2000/svg"
 width="501.000000pt" height="501.000000pt" viewBox="0 0 501.000000 501.000000"
 preserveAspectRatio="xMidYMid meet">
<metadata>
Created by potrace 1.14, written by Peter Selinger 2001-2017
</metadata>
<g transform="translate(0.000000,501.000000) scale(0.100000,-0.100000)"
fill="#000000" stroke="none">
<path d="M3435 4604 c-91 -8 -195 -28 -270 -51 -73 -23 -2125 -1008 -2238
-1075 -249 -147 -434 -392 -513 -683 -25 -92 -27 -115 -28 -285 0 -168 3 -194
26 -282 74 -273 243 -512 463 -656 87 -56 2141 -1055 2253 -1095 404 -146 860
-40 1173 272 143 143 240 312 297 519 l27 97 3 1095 c2 951 1 1108 -13 1194
-57 363 -283 667 -621 835 -164 81 -395 129 -559 115z m-1080 -1359 c33 -8
102 -36 154 -61 76 -38 110 -62 184 -134 l90 -88 66 67 c78 80 136 121 234
166 145 66 156 67 647 72 504 6 511 5 576 -61 68 -68 81 -164 31 -238 -12 -17
-70 -68 -129 -112 -74 -56 -105 -86 -101 -96 29 -78 37 -136 38 -255 0 -150
-18 -224 -88 -360 -58 -112 -190 -244 -302 -302 -115 -59 -203 -84 -320 -90
-227 -13 -428 68 -588 235 l-67 70 -63 -65 c-72 -77 -178 -149 -271 -187 -126
-50 -199 -56 -665 -56 -477 0 -474 0 -538 73 -36 41 -48 86 -41 157 6 62 28
88 156 185 66 50 101 83 98 92 -37 97 -53 244 -36 354 47 328 290 581 615 645
84 16 234 11 320 -11z"/>
<path d="M2053 2955 c-115 -31 -205 -95 -268 -191 -58 -87 -77 -160 -73 -275
3 -90 7 -103 46 -182 143 -288 517 -345 740 -113 66 69 95 119 117 203 27 102
15 210 -32 311 -32 68 -127 170 -191 205 -100 55 -231 71 -339 42z"/>
<path d="M3293 2956 c-233 -57 -390 -283 -354 -511 20 -131 111 -269 219 -332
141 -83 333 -83 474 0 59 34 140 122 173 187 175 345 -138 746 -512 656z"/>
</g>
</svg>
