<?xml version="1.0" encoding="utf-8"?>
<!-- Generator: Adobe Illustrator 26.0.3, SVG Export Plug-In . SVG Version: 6.00 Build 0)  -->
<svg version="1.1" id="Layer_1" xmlns="http://www.w3.org/2000/svg" xmlns:xlink="http://www.w3.org/1999/xlink" x="0px" y="0px"
	 viewBox="0 0 190.79 200" style="enable-background:new 0 0 190.79 200;" xml:space="preserve">
<style type="text/css">
	.st0{fill:#FFFFFF;}
</style>
<path class="st0" d="M9.17,73.72c1.12,0,1.97,0,2.81,0c12.72,0,25.44-0.06,38.17,0.02c11.52,0.07,20.41,7.15,22.92,18.08
	c0.14,0.63,0.3,1.27,0.3,1.91c0.04,7.9,0.53,15.83-0.02,23.69c-0.82,11.69-10.62,20.51-22.35,20.64
	c-13.08,0.14-26.16,0.04-39.24,0.04c-0.78,0-1.55,0-2.14,0c0,5.85-0.58,11.57,0.15,17.11c0.82,6.18,6.8,10.44,13.26,10.47
	c12,0.05,24.01,0.01,36.01,0.02c3.16,0,5.1,1.56,5.3,4.17c0.21,2.69-1.52,4.79-4.24,4.93c-2.29,0.12-4.6,0.06-6.9,0.06
	c-9.63,0-19.26,0.01-28.89,0C9.7,174.84,0.01,165.12,0,150.51C0,120.69,0,90.86,0,61.03c0-11.6,6.03-19.9,17.04-23.33
	c1.17-0.36,1.41-0.9,1.41-1.96c-0.02-4.6-0.1-9.2,0.06-13.8c0.4-11.78,10.15-21.66,21.95-21.79c19.04-0.2,38.09-0.2,57.14,0
	c11.8,0.13,21.5,10.02,21.9,21.84c0.15,4.52,0.1,9.06,0.05,13.58c-0.01,1.3,0.37,1.81,1.68,2.2c10.27,3.03,16.71,11.71,16.78,22.46
	c0.03,5.97,0.04,11.93-0.01,17.9c-0.02,2.43-1.53,4.21-3.7,4.67c-1.98,0.41-4.18-0.63-4.96-2.56c-0.36-0.9-0.45-1.95-0.46-2.94
	c-0.04-5.46,0-10.92-0.03-16.39c-0.04-9.09-5.73-14.79-14.84-14.79c-29.97-0.02-59.94-0.01-89.91,0c-9.23,0-14.9,5.7-14.93,14.92
	C9.16,65.13,9.17,69.22,9.17,73.72z M9.28,128.79c0.61,0.06,1.02,0.13,1.44,0.13c13.22,0.01,26.45,0.09,39.67-0.03
	c8.19-0.07,13.87-5.92,13.97-14.12c0.07-5.75,0.04-11.5,0.01-17.25c-0.05-8.97-5.75-14.63-14.74-14.64c-12.72-0.01-25.44,0-38.16,0
	c-0.7,0-1.39,0.06-2.19,0.1C9.28,98.27,9.28,113.41,9.28,128.79z M27.66,36.67c27.69,0,55.16,0,82.71,0c0-5.05,0.21-9.94-0.05-14.8
	c-0.34-6.31-5.31-11.53-11.58-12.34c-2.76-0.36-5.59-0.28-8.39-0.28c-16.03-0.02-32.05-0.03-48.08,0
	c-7.87,0.01-14.03,5.11-14.55,12.42C27.38,26.58,27.66,31.55,27.66,36.67z"/>
<path class="st0" d="M84.04,159.17c-0.01-5.09,3.92-9.31,8.98-9.84c0.57-0.06,1.37,0.11,1.67-0.2c0.77-0.79,1.8-1.8,1.81-2.72
	c0.01-0.76-1.2-1.73-2.08-2.23c-0.75-0.43-1.83-0.25-2.73-0.46c-5.61-1.31-8.97-6.72-7.18-12.18c1.33-4.07,2.98-8.08,4.95-11.89
	c2.79-5.4,9.32-6.58,14.2-2.88c0.34,0.26,0.66,0.55,1,0.82c1.17,0.95,2.42,1.02,3.51-0.01c1.17-1.1,1.01-2.33,0.17-3.69
	c-1.04-1.68-2.2-3.41-2.67-5.28c-0.98-3.87,0.62-7.75,4.16-9.54c4.14-2.09,8.44-4,12.86-5.37c5.57-1.73,11.11,2.28,11.92,8.1
	c0.1,0.71-0.05,1.6,0.33,2.1c0.63,0.82,1.58,1.91,2.41,1.92c0.83,0.01,1.82-1.05,2.46-1.86c0.38-0.48,0.24-1.38,0.34-2.09
	c0.78-5.9,6.39-9.9,12.08-8.16c4.16,1.27,8.23,2.99,12.1,4.98c5.51,2.83,6.69,9.43,2.88,14.34c-0.26,0.34-0.57,0.65-0.83,0.99
	c-0.9,1.21-0.9,2.45,0.17,3.5c1.07,1.05,2.37,1.08,3.5,0.1c2.02-1.76,4.25-2.89,6.99-2.92c3.46-0.03,6.37,1.29,7.9,4.33
	c2.11,4.21,4.07,8.57,5.47,13.06c1.62,5.18-2.01,10.43-7.47,11.66c-0.7,0.16-1.41,0.27-2.13,0.32c-1.59,0.11-2.63,0.84-2.68,2.49
	c-0.06,1.77,1.03,2.54,2.68,2.74c8.04,0.98,11.58,6.35,9,14c-1.16,3.45-2.64,6.83-4.32,10.06c-3.04,5.83-9.59,7.02-14.75,2.88
	c-0.17-0.13-0.32-0.29-0.49-0.43c-1.23-0.96-2.54-1.14-3.7-0.01c-1.17,1.14-0.96,2.37-0.05,3.68c0.93,1.34,1.96,2.72,2.44,4.25
	c1.39,4.36-0.3,8.71-4.43,10.79c-3.83,1.93-7.8,3.67-11.87,5c-5.96,1.94-11.76-2.09-12.51-8.32c-0.04-0.36-0.07-0.72-0.1-1.07
	c-0.17-1.63-0.95-2.79-2.69-2.77c-1.62,0.02-2.39,1.12-2.57,2.67c-0.04,0.36-0.07,0.72-0.11,1.07c-0.74,6.37-6.54,10.36-12.63,8.4
	c-3.74-1.2-7.42-2.72-10.92-4.5c-5.01-2.54-6.09-8.65-2.58-13.04c0.31-0.39,0.69-0.74,0.98-1.14c0.97-1.34,0.99-2.72-0.19-3.9
	c-1.18-1.19-2.47-1.01-3.92-0.22c-2.03,1.12-4.1,2.43-6.31,2.89c-3.16,0.66-6.08-0.58-7.96-3.24c-3.39-4.79-5.65-10.14-7-15.86
	C84.02,159.99,84.06,159.47,84.04,159.17z M160.32,186.67c-4.83-6.96-4.89-12.66-0.49-17.23c4.48-4.65,9.93-4.7,17.58,0.06
	c1.46-3.52,2.9-6.98,4.13-9.93c-3.25-1.56-6.33-2.58-8.86-4.37c-2.83-2-4.03-5.3-3.8-8.76c0.51-7.71,5.31-11.17,13-11.88
	c-1.57-3.78-3.01-7.25-4.48-10.78c-7.34,4.63-12.77,4.9-17.04,0.46c-1.7-1.77-2.99-4.27-3.59-6.66c-1-4,0.64-7.58,3.7-10.9
	c-3.83-1.57-7.3-2.98-10.82-4.42c-2.54,9.37-5.8,12.99-12,12.82c-2.38-0.07-4.98-0.93-7.04-2.16c-3.7-2.21-5.04-6.05-5.21-10.83
	c-3.89,1.61-7.34,3.04-10.85,4.49c4.64,7.75,4.85,12.8,0.38,17.1c-1.72,1.65-4.15,2.91-6.47,3.5c-4.06,1.02-7.72-0.5-11.04-3.69
	c-1.58,3.86-3,7.32-4.22,10.29c3.2,1.46,6.17,2.39,8.63,4.06c2.72,1.85,4.05,4.92,4.02,8.23c-0.09,8.16-4.97,11.86-13.05,12.69
	c1.82,4.17,3.49,7.98,5.19,11.88c6.93-4.71,12.53-4.94,17.14-0.97c2.08,1.79,3.4,4.02,4.01,6.72c0.92,4.1-0.45,7.59-3.01,11.1
	c3.15,1.21,6.04,2.32,8.97,3.45c2.74-9.65,5.89-12.84,12.37-12.81c6.4,0.03,9.69,3.41,12.19,12.91
	C153.17,189.61,156.63,188.19,160.32,186.67z"/>
<path class="st0" d="M147.22,151.11c1.73,0.4,3.53,0.63,5.19,1.23c2.42,0.87,3.49,3.18,2.84,5.56c-0.63,2.28-2.88,3.59-5.41,3.13
	c-4.62-0.83-4.99-0.68-7.55,3.23c-1.39,2.12-3.85,2.81-6.02,1.69c-2.05-1.06-2.94-3.41-2.15-5.69
	C135.89,155.13,141.37,151.38,147.22,151.11z"/>
</svg>
