<svg width="31" height="28" viewBox="0 0 31 28" xmlns="http://www.w3.org/2000/svg">
<g clip-path="url(#clip0_308_2524)">
<path fill-rule="evenodd" clip-rule="evenodd" d="M12.8013 21.9859C12.3032 22.0047 11.8218 22.1696 11.4167 22.4601C11.0117 22.7505 10.701 23.1536 10.5234 23.6193C10.3458 24.085 10.3091 24.5926 10.4178 25.079C10.5265 25.5654 10.7758 26.0091 11.1348 26.3548C11.4938 26.7006 11.9465 26.9331 12.4367 27.0235C12.9268 27.1139 13.4326 27.0581 13.8913 26.8631C14.35 26.6681 14.7412 26.3426 15.0162 25.9269C15.2913 25.5113 15.438 25.0239 15.4381 24.5255C15.424 23.8395 15.1387 23.187 14.6444 22.7109C14.1502 22.2349 13.4874 21.9742 12.8013 21.9859V21.9859ZM12.8013 25.6462C12.5824 25.6374 12.371 25.5645 12.1932 25.4366C12.0154 25.3086 11.8791 25.1312 11.8014 24.9264C11.7236 24.7216 11.7078 24.4985 11.7558 24.2848C11.8038 24.0711 11.9137 23.8762 12.0716 23.7244C12.2295 23.5725 12.4284 23.4705 12.6439 23.4309C12.8593 23.3913 13.0817 23.4158 13.2833 23.5016C13.4848 23.5873 13.6568 23.7304 13.7777 23.913C13.8986 24.0957 13.9631 24.3098 13.9633 24.5289C13.9557 24.8306 13.8294 25.1171 13.6118 25.3263C13.3943 25.5354 13.103 25.6504 12.8013 25.6462V25.6462ZM22.0639 21.9859C21.5658 22.0047 21.0842 22.1696 20.6792 22.4601C20.2742 22.7505 19.9636 23.1536 19.786 23.6193C19.6084 24.085 19.5716 24.5926 19.6803 25.079C19.789 25.5654 20.0385 26.0091 20.3974 26.3548C20.7564 26.7006 21.2092 26.9331 21.6993 27.0235C22.1894 27.1139 22.6952 27.0581 23.1539 26.8631C23.6126 26.6681 24.0038 26.3426 24.2789 25.9269C24.5539 25.5113 24.7006 25.0239 24.7007 24.5255C24.686 23.8397 24.4005 23.1875 23.9064 22.7116C23.4123 22.2357 22.7498 21.9748 22.0639 21.9859V21.9859ZM22.0639 25.6462C21.845 25.6374 21.6335 25.5645 21.4557 25.4366C21.2779 25.3086 21.1417 25.1312 21.064 24.9264C20.9862 24.7216 20.9704 24.4985 21.0184 24.2848C21.0665 24.0711 21.1763 23.8762 21.3342 23.7244C21.4921 23.5725 21.691 23.4705 21.9065 23.4309C22.1219 23.3913 22.3443 23.4158 22.5459 23.5016C22.7474 23.5873 22.9192 23.7304 23.0402 23.913C23.1611 24.0957 23.2257 24.3098 23.2259 24.5289C23.2177 24.8304 23.0912 25.1166 22.8738 25.3256C22.6563 25.5347 22.3655 25.6498 22.0639 25.6462V25.6462ZM22.7119 8.61602H12.1533C12.0578 8.61223 11.9626 8.62776 11.8732 8.66168C11.7839 8.6956 11.7024 8.74721 11.6335 8.81341C11.5646 8.87962 11.5097 8.95906 11.4723 9.04696C11.4348 9.13486 11.4157 9.22942 11.4157 9.32496C11.4157 9.4205 11.4348 9.51506 11.4723 9.60297C11.5097 9.69087 11.5646 9.7703 11.6335 9.83651C11.7024 9.90271 11.7839 9.95432 11.8732 9.98824C11.9626 10.0222 12.0578 10.0377 12.1533 10.0339H22.7119C22.8073 10.0377 22.9026 10.0222 22.9919 9.98824C23.0812 9.95432 23.1628 9.90271 23.2316 9.83651C23.3005 9.7703 23.3554 9.69087 23.3929 9.60297C23.4303 9.51506 23.4496 9.4205 23.4496 9.32496C23.4496 9.22942 23.4303 9.13486 23.3929 9.04696C23.3554 8.95906 23.3005 8.87962 23.2316 8.81341C23.1628 8.74721 23.0812 8.6956 22.9919 8.66168C22.9026 8.62776 22.8073 8.61223 22.7119 8.61602V8.61602ZM22.1308 12.2976H12.7231C12.6276 12.2938 12.5324 12.3093 12.4431 12.3432C12.3538 12.3772 12.2722 12.4288 12.2033 12.495C12.1344 12.5612 12.0795 12.6406 12.0421 12.7285C12.0047 12.8164 11.9854 12.911 11.9854 13.0065C11.9854 13.1021 12.0047 13.1966 12.0421 13.2845C12.0795 13.3724 12.1344 13.4519 12.2033 13.5181C12.2722 13.5843 12.3538 13.6359 12.4431 13.6698C12.5324 13.7037 12.6276 13.7193 12.7231 13.7155H22.1308C22.224 13.7155 22.3163 13.6971 22.4024 13.6615C22.4885 13.6258 22.5667 13.5735 22.6326 13.5077C22.6985 13.4418 22.7507 13.3636 22.7863 13.2775C22.822 13.1914 22.8403 13.0991 22.8403 13.006C22.8403 12.9128 22.822 12.8205 22.7863 12.7345C22.7507 12.6484 22.6985 12.5702 22.6326 12.5043C22.5667 12.4384 22.4885 12.3861 22.4024 12.3505C22.3163 12.3148 22.224 12.2965 22.1308 12.2965V12.2976ZM29.8963 5.45736C29.7561 5.29226 29.5813 5.15996 29.3844 5.0698C29.1875 4.97964 28.9732 4.93382 28.7566 4.93558H5.80683L5.33764 2.77021C5.28942 2.54474 5.1868 2.33446 5.03881 2.15765C4.89082 1.98084 4.70193 1.84285 4.48847 1.75569L1.24822 0.404851C1.07173 0.328854 0.872574 0.324749 0.693104 0.393407C0.513634 0.462064 0.368041 0.598065 0.287339 0.772451C0.247578 0.858183 0.225893 0.951183 0.223645 1.04566C0.221397 1.14014 0.238606 1.23407 0.274246 1.32159C0.309885 1.40912 0.363217 1.48837 0.430823 1.5544C0.498429 1.62043 0.578849 1.67184 0.66719 1.70541L3.89626 3.05625L7.46044 19.7043C7.53726 20.0282 7.72171 20.3164 7.9835 20.522C8.24528 20.7276 8.56898 20.8383 8.90182 20.8361H26.5555C26.651 20.8399 26.7462 20.8244 26.8355 20.7905C26.9248 20.7566 27.0064 20.7049 27.0753 20.6387C27.1442 20.5725 27.1989 20.4931 27.2364 20.4052C27.2738 20.3173 27.2931 20.2227 27.2931 20.1272C27.2931 20.0317 27.2738 19.9371 27.2364 19.8492C27.1989 19.7613 27.1442 19.6819 27.0753 19.6157C27.0064 19.5494 26.9248 19.4978 26.8355 19.4639C26.7462 19.43 26.651 19.4145 26.5555 19.4183H8.90182L8.47724 17.3926H26.6896C27.0242 17.3969 27.3503 17.2871 27.6143 17.0814C27.8783 16.8757 28.0644 16.5863 28.142 16.2607L30.198 6.63613C30.2413 6.42949 30.2366 6.21566 30.1843 6.01111C30.132 5.80655 30.0335 5.61673 29.8963 5.45625V5.45736ZM26.6896 15.978H8.16435L6.10853 6.35234H28.7566L26.6896 15.978Z"/>
</g>
<defs>
<clipPath id="clip0_308_2524">
<rect width="30" height="26.7106" fill="white" transform="translate(0.220215 0.353516)"/>
</clipPath>
</defs>
</svg>
