<?xml version="1.0" encoding="utf-8"?>
<!-- Generator: Adobe Illustrator 26.0.3, SVG Export Plug-In . SVG Version: 6.00 Build 0)  -->
<svg version="1.1" id="Layer_1" xmlns="http://www.w3.org/2000/svg" xmlns:xlink="http://www.w3.org/1999/xlink" x="0px" y="0px"
	 viewBox="0 0 26.9 23.9" style="enable-background:new 0 0 26.9 23.9;" xml:space="preserve">
<style type="text/css">
	.st0{fill-rule:evenodd;clip-rule:evenodd;fill:#232323;}
</style>
<path class="st0" d="M11.3,19.4c-1.3,0-2.2,1.1-2.2,2.4s1.1,2.2,2.4,2.2c1.2,0,2.2-1,2.2-2.3C13.6,20.4,12.5,19.3,11.3,19.4z
	 M11.3,22.6c-0.6,0-1-0.5-1-1c0-0.6,0.5-1,1-1c0.5,0,1,0.5,1,1C12.3,22.2,11.8,22.6,11.3,22.6z M19.6,19.4c-1.3,0-2.2,1.1-2.2,2.4
	s1.1,2.2,2.4,2.2c1.2,0,2.2-1,2.2-2.3C21.9,20.4,20.8,19.3,19.6,19.4z M19.6,22.6c-0.6,0-1-0.5-1-1c0-0.6,0.5-1,1-1c0.5,0,1,0.5,1,1
	C20.6,22.2,20.1,22.6,19.6,22.6z M20.1,7.4h-9.4C10.3,7.4,10,7.7,10,8c0,0.4,0.3,0.6,0.6,0.7c0,0,0,0,0.1,0h9.4
	c0.4,0,0.6-0.3,0.7-0.6C20.8,7.7,20.5,7.4,20.1,7.4C20.2,7.4,20.1,7.4,20.1,7.4z M19.6,10.7h-8.4c-0.4,0-0.6,0.3-0.7,0.6
	c0,0.4,0.3,0.6,0.6,0.7c0,0,0,0,0.1,0h8.4c0.4,0,0.6-0.3,0.6-0.6S20,10.7,19.6,10.7L19.6,10.7L19.6,10.7z M26.6,4.6
	c-0.3-0.3-0.6-0.5-1-0.5H5L4.6,2.2C4.5,1.8,4.2,1.4,3.8,1.3L0.9,0c-0.3-0.1-0.7,0-0.9,0.3c-0.1,0.3,0,0.7,0.3,0.8c0,0,0,0,0,0
	l2.9,1.2l3.2,14.9c0.1,0.6,0.7,1,1.3,1h15.8c0.4,0,0.6-0.3,0.7-0.6c0-0.4-0.3-0.6-0.6-0.7c0,0,0,0-0.1,0H7.8l-0.4-1.8h16.3
	c0.6,0,1.2-0.4,1.3-1l1.8-8.6C26.9,5.2,26.8,4.9,26.6,4.6L26.6,4.6z M23.7,14H7.1L5.3,5.4h20.3L23.7,14z"/>
</svg>
