<?xml version="1.0" encoding="utf-8"?>
<!-- Generator: Adobe Illustrator 26.0.3, SVG Export Plug-In . SVG Version: 6.00 Build 0)  -->
<svg version="1.1" id="Layer_1" xmlns="http://www.w3.org/2000/svg" xmlns:xlink="http://www.w3.org/1999/xlink" x="0px" y="0px"
	 viewBox="0 0 21.4 21.4" style="enable-background:new 0 0 21.4 21.4;" xml:space="preserve">
<style type="text/css">
</style>
<path fill="none" stroke-miterlimit="10" class="st0" d="M7.2,9.2H2.5c-1.1,0-2-0.9-2-2V2.5c0-1.1,0.9-2,2-2h4.7c1.1,0,2,0.9,2,2v4.7C9.2,8.3,8.3,9.2,7.2,9.2z"/>
<path fill="none" stroke-miterlimit="10" class="st0" d="M18.9,9.2h-4.7c-1.1,0-2-0.9-2-2V2.5c0-1.1,0.9-2,2-2h4.7c1.1,0,2,0.9,2,2v4.7C20.9,8.3,20,9.2,18.9,9.2z"/>
<path fill="none" stroke-miterlimit="10" class="st0" d="M7.2,20.9H2.5c-1.1,0-2-0.9-2-2v-4.7c0-1.1,0.9-2,2-2h4.7c1.1,0,2,0.9,2,2v4.7C9.2,20,8.3,20.9,7.2,20.9z"/>
<path fill="none" stroke-miterlimit="10" class="st0" d="M18.9,20.9h-4.7c-1.1,0-2-0.9-2-2v-4.7c0-1.1,0.9-2,2-2h4.7c1.1,0,2,0.9,2,2v4.7C20.9,20,20,20.9,18.9,20.9z"/>
</svg>
