<?xml version="1.0" encoding="utf-8"?>
<!-- Generator: Adobe Illustrator 26.0.3, SVG Export Plug-In . SVG Version: 6.00 Build 0)  -->
<svg version="1.1" id="Layer_1" xmlns="http://www.w3.org/2000/svg" xmlns:xlink="http://www.w3.org/1999/xlink" x="0px" y="0px"
	 viewBox="0 0 199.76 65.23" style="enable-background:new 0 0 199.76 65.23;" xml:space="preserve">
<style type="text/css">
	.st0{fill:#FFFFFF;}
</style>
<path class="st0" d="M199.76,19.39c-0.89,1.56-1.89,3.06-2.63,4.68c-0.69,1.51-1.27,3.11-1.6,4.74c-1.2,5.78-2.25,11.58-3.39,17.37
	c-1.65,8.38-7.03,13.5-14.86,15.93c-4.61,1.43-9.48,2.3-14.29,2.74c-9.55,0.88-19.03,0.28-28.38-2.22
	c-9.83-2.63-16.65-8.61-21.04-17.65c-2.85-5.86-5.12-11.91-6.53-18.27c-0.5-2.28-1.81-3.53-4.04-3.86
	c-1.21-0.18-2.45-0.32-3.67-0.28c-4.54,0.14-5.71,1.15-6.79,5.57c-1.63,6.65-4.1,12.96-7.34,19c-4.38,8.15-11.12,13.12-19.99,15.5
	c-10.64,2.85-21.39,3.18-32.25,1.75c-5.22-0.69-10.3-1.77-15.04-4.34c-5.42-2.94-8.64-7.38-9.94-13.24
	C6.65,40.93,5.56,35,4.47,29.07c-0.43-2.34-1.09-4.44-2.69-6.33C-0.59,19.92-0.55,9.41,1.64,6.46c1.52-2.05,3.66-3,6.1-3.48
	C22.95-0.01,38.3-0.56,53.71,0.5c7.23,0.5,14.44,1.48,21.62,2.55c2.51,0.37,4.92,1.58,7.31,2.57c2.51,1.04,4.96,2.25,7.41,3.43
	c6.64,3.19,13.25,3.18,19.88-0.04c2.86-1.39,5.74-2.72,8.64-4.02c5.59-2.52,11.57-3.51,17.6-3.79c11.08-0.5,22.2-1.05,33.28-0.78
	c7.74,0.19,15.47,1.61,23.18,2.68c3.72,0.52,6.11,2.88,7.14,6.55C199.76,12.89,199.76,16.14,199.76,19.39z M41.76,7.04
	c-5.44,0.5-10.71,0.71-15.88,1.53c-6.59,1.05-10.98,4.76-12.62,11.55c-1.54,6.37-1.11,12.63,0.3,18.89
	c2.28,10.12,8.36,16.36,18.68,18.48c8.12,1.67,16.22,1.98,24.35,0.43c6.06-1.16,12-3.05,16.39-7.53
	c8.04-8.2,11.62-18.36,11.79-29.78c0.05-3.47-1.48-5.99-4.63-7.15c-4.05-1.49-8.17-3.14-12.4-3.74C59.08,8.49,50.33,7.89,41.76,7.04
	z M159.95,7.11c-8.64,0.66-15.77,1.07-22.87,1.8c-5.62,0.58-11.12,1.74-16.39,3.96c-4.08,1.72-5.7,4.62-5.63,8.98
	c0.11,6.66,2.22,12.71,4.85,18.68c3.57,8.11,9.56,13.41,18.01,15.99c11.06,3.38,22.11,3.24,33.16-0.02
	c5.77-1.7,10.21-5.11,12.77-10.61c3.69-7.94,4.72-16.27,3-24.88c-1.29-6.46-4.95-10.92-11.58-12.09
	C169.73,7.95,164.09,7.58,159.95,7.11z M8.94,13.44c-1.81-0.69-3.09-1.18-4.5-1.72c0,1.26,0,2.27,0,3.5
	C5.88,14.65,7.16,14.15,8.94,13.44z M195.45,11.7c-1.44,0.57-2.73,1.07-4.45,1.75c1.7,0.67,3.01,1.18,4.45,1.74
	C195.45,13.91,195.45,12.91,195.45,11.7z"/>
</svg>
