<?xml version="1.0" encoding="utf-8"?>
<!-- Generator: Adobe Illustrator 26.0.3, SVG Export Plug-In . SVG Version: 6.00 Build 0)  -->
<svg version="1.1" id="Layer_1" xmlns="http://www.w3.org/2000/svg" xmlns:xlink="http://www.w3.org/1999/xlink" x="0px" y="0px"
	 viewBox="0 0 509.6 509.1" style="enable-background:new 0 0 509.6 509.1;" xml:space="preserve">
<style type="text/css">
	.st0{fill:#232323;}
</style>
<path class="st0" d="M267.1,0c12.6,4.1,21.6,13,30.6,22.1c65.4,65.6,131,131,196.4,196.6c4.5,4.5,9,9.8,11.3,15.5
	c13.3,32.3-6.6,65.3-41.2,66.7c-2.6,0.1-5.3,0-8.8,0c0,2.2,0,4.1,0,6c0,48.8,0.1,97.6,0,146.4c-0.1,26.7-17,48.3-42.6,54.3
	c-4.5,1.1-9.2,1.4-13.8,1.5c-25.9,0.1-51.8,0.1-77.7,0.1c-11.2,0-17.2-5.9-17.2-17.2c0-38.3,0-76.7,0-115
	c0-17.7-10.1-27.8-27.7-27.9c-14.3,0-28.6,0-42.8,0c-17.3,0.1-27.4,10.2-27.4,27.6c0,38,0,76,0,114c0,13-5.5,18.4-18.5,18.4
	c-25.2,0-50.5,0-75.7,0c-33.4,0-57.1-23.6-57.1-57c-0.1-48.1,0-96.3,0-144.4c0-2,0-3.9,0-6.2c-5.7-0.5-11.2-0.5-16.4-1.5
	c-17.8-3.5-29.9-14-35.7-31c-5.7-16.9-2.2-32.4,9.3-46c1.5-1.8,3.2-3.4,4.8-5C81.7,152.9,146.7,88.1,211.5,23.1
	c9.4-9.4,18.5-19,31.7-23.1C251.2,0,259.1,0,267.1,0z M334,479.2c2.5,0,4.3,0,6.1,0c18.4,0,36.9-0.7,55.3,0.2
	c18.6,0.9,30.6-11.2,30.4-30.1c-0.7-53.3-0.2-106.6-0.2-159.8c0-12.9,5.6-18.4,18.6-18.4c6.5,0,13,0.1,19.4,0c6.9-0.2,12-3.5,15-9.8
	c3.1-6.5,2.1-12.6-2.3-18.2c-1.3-1.7-2.9-3.2-4.5-4.7C404.6,171.2,337.4,104.1,270.3,37c-10.9-10.9-19.4-10.9-30.2-0.1
	C180,97,119.9,157.1,59.8,217.2c-8.3,8.3-16.8,16.6-25,25.1c-5.1,5.3-6.3,11.7-3.4,18.4c2.9,6.7,8.2,10.3,15.6,10.4
	c6.3,0.1,12.6,0,18.9,0c13.3,0,18.8,5.5,18.8,18.7c0,54.3,0,108.6,0,162.9c0,16,10.5,26.5,26.5,26.6c20.1,0,40.2,0,60.3,0
	c1.4,0,2.9-0.2,4.8-0.3c0-2.2,0-4.2,0-6.1c0-32.5-0.1-65.1,0-97.6c0.2-30.8,21.4-53.9,52.1-55.7c17.7-1,35.5-0.2,53.3-0.1
	c3,0,6,0.5,8.9,1.1c26.1,5.9,43.3,27.3,43.4,54.6c0.2,32.5,0,65.1,0,97.6C334,474.5,334,476.5,334,479.2z"/>
</svg>
