<?xml version="1.0" encoding="utf-8"?>
<!-- Generator: Adobe Illustrator 26.0.3, SVG Export Plug-In . SVG Version: 6.00 Build 0)  -->
<svg  version="1.1" id="Layer_1" xmlns="http://www.w3.org/2000/svg" xmlns:xlink="http://www.w3.org/1999/xlink" x="0px" y="0px"
	 viewBox="0 0 497.43 200" style="enable-background:new 0 0 497.43 200;" xml:space="preserve" >
<style type="text/css">
	.st0{fill:#FFFFFF;}
</style>
<path class="st0" d="M30.23,106.42c-7.24,0-14.02,0.06-20.8-0.02c-5.88-0.07-9.56-3.42-9.42-8.36c0.14-4.77,3.67-7.84,9.36-7.91
	c6.93-0.08,13.86-0.02,20.73-0.02c6.39-54.47,47.94-85.8,88.42-89.64c49.75-4.72,92.43,26.75,105.29,73
	c16.82-7.84,33.61-8.01,50.07,0.63c18.54-47.32,52.09-74.27,103.43-69.93c51.11,4.31,79.65,36.34,90.13,85.94
	c6.7,0,13.66-0.06,20.61,0.02c5.66,0.06,9.25,3.15,9.4,7.88c0.16,4.91-3.57,8.32-9.41,8.39c-6.77,0.08-13.53,0.02-20.36,0.02
	c-0.97,5.87-1.63,11.4-2.81,16.82c-9.87,45.27-52.09,78.21-98.2,76.71c-47.69-1.55-87.59-36.42-94.57-82.87
	c-0.93-6.18-1.07-12.51-1.17-18.77c-0.07-4.35-1.75-7.43-5.29-9.78c-9.06-6.01-25.34-5.98-34.5,0.02c-3.12,2.04-4.53,4.57-4.57,8.42
	c-0.46,50.95-34.19,90.41-84.09,98.53c-51.43,8.37-102.98-29.08-110.91-80.58C31.15,112.24,30.72,109.58,30.23,106.42z
	 M450.92,101.94c0.37-47.05-39.25-84.05-85.64-82.3c-43.76,1.65-79.38,39.59-78.11,84.19c1.29,45.07,38.99,81.08,83.57,79.82
	C415.36,182.39,452.04,145.01,450.92,101.94z M46.73,97.83c-1.7,41.38,33.68,82.66,82.29,82.38c48.39-0.28,84.82-42.75,81.2-88.15
	c-3.13-39.32-36.69-76.14-82.38-75.71C82.77,16.78,46.46,53.2,46.73,97.83z"/>
<path class="st0" d="M310.66,88.84c1.16-25.09,21.99-45.46,46.9-45.89c5.83-0.1,9.3,2.6,9.57,7.47c0.28,4.94-2.7,8.55-8.5,8.65
	c-18.3,0.31-31.72,16.1-31.89,31.43c-0.07,6.22-3.6,9.27-8.7,8.97C312.85,99.15,310.35,95.55,310.66,88.84z"/>
<path class="st0" d="M115.16,37.37c5.19,0.01,8.85,3.04,9.17,7.6c0.32,4.63-2.85,8.03-8.04,8.62
	c-20.31,2.32-30.24,12.24-32.53,32.51c-0.59,5.2-3.98,8.37-8.61,8.06c-4.56-0.31-7.61-3.98-7.62-9.15
	C67.49,59.88,90.03,37.33,115.16,37.37z"/>
</svg>
