<?xml version="1.0" encoding="utf-8"?>
<!-- Generator: Adobe Illustrator 26.0.3, SVG Export Plug-In . SVG Version: 6.00 Build 0)  -->
<svg version="1.1" id="Layer_1" xmlns="http://www.w3.org/2000/svg" xmlns:xlink="http://www.w3.org/1999/xlink" x="0px" y="0px"
	 viewBox="0 0 199.36 172.07" style="enable-background:new 0 0 199.36 172.07;" xml:space="preserve">
<style type="text/css">
	.st0{fill:#FFFFFF;}
</style>
<path class="st0" d="M199.36,158.89c-0.4,2.03-0.56,4.14-1.27,6.05c-0.72,1.96-1.72,3.95-3.1,5.49c-0.87,0.97-2.64,1.58-4,1.57
	c-15.2-0.05-29.56-3.54-42.89-10.97c-1.59-0.88-3.22-1.72-4.67-2.8c-1.37-1.02-2.39-0.84-3.8,0.01
	c-38.93,23.6-89.91,16.43-120.59-16.98c-8.05-8.76-14.02-18.8-17.79-30.12c-0.1-0.31-0.22-0.61-0.32-0.92
	c-1.9-5.61-1.04-8.17,4.11-11.3c5.97-3.63,12.67-5.28,19.42-6.66c15.37-3.14,30.96-4.54,46.61-5.06c9.27-0.31,18.56-0.06,28.12-0.06
	c-0.07-1.28-0.11-2.08-0.15-2.89c-1.78-33.43,9.31-61.12,36.46-81.61c4.98-3.76,7.94-3.52,12.61,0.79
	c4.3,3.97,7.42,8.84,10.31,13.86c9.31,16.14,16.17,33.36,22.22,50.92c7.5,21.75,13.4,43.91,17.03,66.65
	c0.61,3.84,0.9,7.74,1.35,11.6c0.07,0.64,0.23,1.26,0.35,1.89C199.36,151.87,199.36,155.38,199.36,158.89z M132.91,11.79
	c-22.34,18.08-36.48,55.39-24.4,92.88c12.57,39.04,46.65,59.27,72.45,61.12c-0.05-0.19-0.06-0.4-0.16-0.53
	c-7.03-8.81-12.01-18.8-16.58-28.99c-13.54-30.21-23.14-61.66-29.05-94.23C133.36,32.13,132.11,22.14,132.91,11.79z M136.57,153.69
	c-0.16-0.2-0.22-0.32-0.32-0.4c-9.7-7.54-17.67-16.59-23.99-27.12c-0.32-0.54-1.33-0.95-2.02-0.94c-4.54,0.06-9.09,0.31-13.63,0.38
	c-18.26,0.26-36.49-0.5-54.62-2.69c-11.08-1.34-22.12-3-32.58-7.22c-0.13-0.05-0.33,0.07-0.51,0.12
	C29.85,163.6,92.06,181.02,136.57,153.69z M137.77,18.03c0.43,10.46,2,20.73,4.08,30.92c5.55,27.16,13.77,53.5,24.57,79.02
	c4.61,10.88,9.6,21.6,16.58,31.23c1.73,2.39,3.87,4.55,6.08,6.52c1.82,1.62,3.1,1.23,3.68-1.13c0.66-2.68,1.06-5.48,1.13-8.24
	c0.29-10.51-1.32-20.85-3.32-31.12c-4.75-24.45-11.94-48.21-20.97-71.4c-5.16-13.25-10.82-26.3-18.66-38.23
	c-2.08-3.17-4.63-6.11-7.3-8.81c-2.36-2.39-4.01-1.83-4.67,1.44C138.32,11.43,138.15,14.75,137.77,18.03z M99.99,92.33
	c-0.46-0.06-0.65-0.1-0.84-0.1c-22.29-0.36-44.53,0.33-66.58,3.97c-7.42,1.23-14.8,2.72-21.79,5.65c-1.48,0.62-2.93,1.41-4.24,2.34
	c-1.85,1.33-1.89,2.57-0.09,3.88c1.4,1.02,2.97,1.87,4.57,2.52c8.91,3.6,18.32,5.2,27.76,6.53c15.64,2.2,31.39,3,47.18,3.12
	c7.51,0.06,15.03,0.01,23.05,0.01C104.53,110.97,101.56,101.89,99.99,92.33z"/>
</svg>
