<svg width="25" height="19" viewBox="0 0 25 19" xmlns="http://www.w3.org/2000/svg">
<path d="M4.58803 18.8495H19.7645C22.2057 18.8495 24.1763 16.9089 24.1763 14.505V4.94705C24.1763 2.54309 22.2057 0.602539 19.7645 0.602539H4.58803C2.14686 0.602539 0.17627 2.54309 0.17627 4.94705V14.505C0.17627 16.9089 2.14686 18.8495 4.58803 18.8495ZM22.4116 14.505C22.4116 15.9531 21.2351 17.1117 19.7645 17.1117H4.58803C3.11745 17.1117 1.94098 15.9531 1.94098 14.505V4.94705C1.94098 4.42571 2.11745 3.93333 2.38215 3.49888L10.4116 10.4501C10.9116 10.8845 11.5292 11.1162 12.1763 11.1162C12.7939 11.1162 13.441 10.9135 13.9116 10.4791L21.941 3.52784C22.2057 3.93333 22.3822 4.42571 22.3822 4.97601V14.505H22.4116ZM19.7645 2.34034C20.0292 2.34034 20.2939 2.36931 20.5292 2.4562L12.7645 9.14674C12.441 9.43637 11.941 9.43637 11.588 9.14674L3.82333 2.4562C4.05862 2.39827 4.32333 2.34034 4.58803 2.34034H19.7645Z"/>
</svg>
