<?xml version="1.0" encoding="utf-8"?>
<!-- Generator: Adobe Illustrator 26.0.3, SVG Export Plug-In . SVG Version: 6.00 Build 0)  -->
<svg version="1.1" id="Layer_1" xmlns="http://www.w3.org/2000/svg" xmlns:xlink="http://www.w3.org/1999/xlink" x="0px" y="0px"
	 viewBox="0 0 277.2 362.8" style="enable-background:new 0 0 277.2 362.8;" xml:space="preserve">
<style type="text/css">
	.st0{fill:#232323;}
</style>
<path class="st0" d="M135.1,0c70.8-0.2,128.5,48.7,140.3,115.3c4.5,25.4-0.2,49.1-10.3,72.2c-14.4,32.9-33.8,62.8-54.7,91.9
	c-19.4,27-40.2,52.9-62.1,77.9c-6.4,7.3-12.8,7.3-19.2,0c-34.2-39.4-66.3-80.4-93.5-125c-10.6-17.5-19.9-35.7-27.5-54.8
	c-12.4-31.5-10.3-62.6,3.1-92.9C31.9,38,68,10.5,118,1.6C124.8,0.4,131.7,0.3,135.1,0z M138.4,335.9c1.2-1.3,2-2,2.6-2.7
	c17.9-22.8,36.2-45.2,53.5-68.5c19.1-25.5,36.2-52.4,49.5-81.5c9.5-20.6,14.3-41.7,10.4-64.7C244,56.8,183.6,12.5,121.6,22.7
	C76.9,30.1,45.8,55.5,29,97.6c-6.7,16.8-9.4,34.5-6.4,52.5c2.8,16.7,9.8,31.9,17.5,46.8c17.9,34.4,40.3,65.7,64,96.2
	C115.2,307.5,126.8,321.4,138.4,335.9z"/>
<path class="st0" d="M64.1,138.9c-0.2-41,33.3-74.6,74.5-74.8c41.2-0.1,74.7,33.2,74.8,74.4c0.2,41-33.4,74.7-74.5,74.9
	C97.9,213.6,64.3,180.1,64.1,138.9z M138.6,192c29.6,0,53.4-23.7,53.4-53.3c0-29.4-23.7-53.2-53-53.3c-29.5-0.1-53.5,23.7-53.6,53.1
	C85.4,168.1,109.1,191.9,138.6,192z"/>
</svg>
