<svg width="21" height="21" viewBox="0 0 21 21" fill="none" xmlns="http://www.w3.org/2000/svg">
<g clip-path="url(#clip0_942_5524)">
<path d="M20.4539 8.27659C20.4329 8.32741 20.402 8.37358 20.3631 8.41241L15.3632 13.4122C15.1977 13.5721 14.934 13.5675 14.7741 13.402C14.6181 13.2405 14.6181 12.9845 14.7741 12.8231L19.0631 8.53404H10.9026C5.61253 8.54006 1.32559 12.827 1.31962 18.117C1.31962 18.3471 1.13306 18.5337 0.902952 18.5337C0.672844 18.5337 0.486328 18.3471 0.486328 18.117C0.492773 12.3669 5.15251 7.7072 10.9026 7.70076H19.0631L14.7749 3.4126C14.6094 3.25273 14.6049 2.98895 14.7648 2.82345C14.9246 2.65794 15.1884 2.65337 15.3539 2.81325C15.3574 2.81661 15.3608 2.82001 15.3641 2.82345L20.3639 7.82325C20.4833 7.94231 20.5191 8.1216 20.4547 8.27741L20.4539 8.27659Z" fill="#5690F5"/>
<path d="M15.0698 2.7009C14.8396 2.70047 14.6528 2.88672 14.6523 3.11682C14.6521 3.22776 14.6962 3.3342 14.7748 3.41255L19.4804 8.11737L14.7748 12.8222C14.6149 12.9877 14.6195 13.2515 14.785 13.4113C14.9465 13.5673 15.2024 13.5673 15.3639 13.4113L20.3637 8.41154C20.5264 8.24885 20.5264 7.98511 20.3637 7.82238L15.3639 2.82258C15.2858 2.74469 15.1801 2.70094 15.0698 2.7009Z" fill="#5690F5"/>
<path d="M20.0689 7.70076H10.9026C5.15251 7.7072 0.492773 12.3669 0.486328 18.117C0.486328 18.3471 0.672883 18.5337 0.902992 18.5337C1.1331 18.5337 1.31965 18.3471 1.31965 18.117C1.32563 12.827 5.61257 8.54002 10.9026 8.53408H20.0689C20.299 8.53408 20.4856 8.34753 20.4856 8.11742C20.4855 7.88731 20.299 7.70076 20.0689 7.70076Z" fill="#5690F5"/>
</g>
<defs>
<clipPath id="clip0_942_5524">
<rect width="20" height="20" fill="white" transform="matrix(1 0 0 -1 0.486328 20.6147)"/>
</clipPath>
</defs>
</svg>
