<?xml version="1.0" encoding="utf-8"?>
<!-- Generator: Adobe Illustrator 26.0.3, SVG Export Plug-In . SVG Version: 6.00 Build 0)  -->
<svg version="1.1" id="Layer_1" xmlns="http://www.w3.org/2000/svg" xmlns:xlink="http://www.w3.org/1999/xlink" x="0px" y="0px"
	 viewBox="0 0 392 408.8" style="enable-background:new 0 0 392 408.8;" xml:space="preserve">
<style type="text/css">
	.st0{fill:#232323;}
</style>
<path class="st0" d="M192,408.8c-10.8-1.7-18.9-7.8-26.3-15.4c-5.8-6-12.1-11.6-18-17.5c-3.9-3.9-8.3-5.2-13.8-4.3
	c-10.1,1.6-20.2,3.1-30.4,4.4c-22.4,2.8-38.7-9.7-42.4-32.2c-1.6-9.7-3.4-19.4-5-29.1c-0.9-5.3-3.6-8.9-8.4-11.3
	c-9.2-4.7-18.4-9.6-27.5-14.5c-19-10.3-25.3-29.8-16-49.2c4.5-9.4,9-18.7,13.7-27.9c2.5-4.9,2.5-9.5,0-14.4
	c-4.6-9.1-9.1-18.3-13.5-27.6c-9.5-19.8-3.1-39.4,16.3-49.8c8.9-4.8,17.8-9.6,26.8-14.2c5.3-2.6,7.9-6.6,8.8-12.3
	c1.6-10.2,3.3-20.5,5.4-30.6C66,41.1,83,29.6,104.8,33c10.1,1.6,20.3,3,30.4,4.4c4.7,0.7,8.6-0.7,12-4c7.6-7.5,15.3-14.9,22.9-22.2
	c15.6-14.9,36.2-14.9,51.8,0c7.5,7.2,15,14.3,22.4,21.7c4,4.1,8.6,5.3,14.2,4.4c10.1-1.6,20.2-3.2,30.4-4.4
	c22.1-2.5,38,9.4,41.9,31.4c1.8,9.7,3.5,19.4,5,29.1c0.9,5.7,3.5,9.7,8.8,12.4c8.9,4.5,17.6,9.3,26.4,14
	c20,10.7,26.3,30.2,16.4,50.7c-4.2,8.7-8.3,17.5-12.8,26.1c-2.8,5.4-2.9,10.4-0.1,15.9c4.7,9,9,18.1,13.3,27.2
	c9.3,19.5,3,39-16,49.3c-9,4.9-18,9.8-27.1,14.3c-5.4,2.7-8.1,6.8-9,12.7c-1.6,10.1-3.3,20.2-5.3,30.2c-4.4,21.6-21.3,33.2-43,29.8
	c-10.1-1.6-20.3-2.9-30.4-4.4c-4.7-0.7-8.6,0.6-12,3.9c-6.2,6.1-12.6,11.9-18.6,18.1c-7.4,7.6-15.6,13.6-26.3,15.4
	C197.3,408.8,194.6,408.8,192,408.8z M293.8,352.9c7,0.2,11.9-3.5,13.2-9.9c1.7-9.1,3.7-18.3,4.8-27.5c1.9-16.5,9.9-28.1,25.2-35.1
	c8.1-3.7,15.8-8.2,23.6-12.4c7.9-4.2,9.9-10.3,6-18.3c-4.5-9.3-9-18.7-13.7-27.9c-5.9-11.6-5.9-23.2,0-34.8
	c4.5-9,8.9-18.1,13.3-27.2c4.4-9,2.5-14.6-6.3-19.4c-9.2-4.9-18.3-9.7-27.5-14.6c-10.5-5.6-17.1-14.1-19.3-25.9
	c-2-11.1-3.9-22.2-6-33.3c-1.5-7.8-6.9-11.6-14.7-10.6c-10.1,1.4-20.3,2.8-30.4,4.4c-13.4,2.2-24.9-1.3-34.6-11.1
	c-7-7.1-14.3-13.9-21.5-20.8c-7-6.8-13-6.7-20.1,0.1c-7.5,7.2-14.9,14.4-22.4,21.6c-8.4,8.1-18.4,12-30.2,10.4
	c-11.1-1.5-22.1-3-33.2-4.6c-8.3-1.2-13.8,2.5-15.3,10.7c-1.7,8.7-3.6,17.5-4.6,26.3c-1.8,16.7-10,28.4-25.4,35.4
	c-8,3.6-15.6,8.1-23.3,12.2c-8.2,4.4-10.1,10.3-6.1,18.5c4.5,9.3,9,18.7,13.7,27.9c5.8,11.5,5.8,22.9,0,34.5
	c-4.6,9.1-9,18.4-13.5,27.6c-4.3,8.8-2.4,14.5,6.2,19.1c9,4.8,18,9.7,27.1,14.4c11.7,6.1,18.3,15.7,20.4,28.7
	c1.6,10.1,3.4,20.2,5.3,30.2c1.7,8.8,7,12.3,15.8,11c10.1-1.5,20.3-2.9,30.4-4.4c13.2-1.9,24.3,2,33.7,11.3
	c7,6.9,14.1,13.7,21.2,20.6c7.1,6.8,13.1,6.9,20.1,0.1c7-6.7,14.1-13.3,20.9-20.3c10.1-10.4,22.1-13.9,36.3-11.4
	C273.5,350.3,284,351.5,293.8,352.9z"/>
<path class="st0" d="M286.1,126.8c-1.1,2.4-2,4.8-3.2,7.1c-0.6,1.1-1.7,2-2.7,2.9C229.6,187.4,179,238,128.4,288.6
	c-2.9,2.9-5.9,5.4-10.3,5.3c-4.7-0.1-8.2-2.2-10.3-6.3c-2.2-4.3-1.8-8.5,1-12.4c0.9-1.2,1.9-2.2,3-3.2
	c50.6-50.6,101.2-101.2,151.8-151.8c2.9-2.9,5.9-5.3,10.3-5.3C280.3,114.9,285.5,120.1,286.1,126.8z"/>
<path class="st0" d="M148.6,184.7c-24-0.1-43.1-19.6-42.9-43.6c0.2-23.6,19.9-43,43.5-42.7c23.7,0.3,42.9,19.8,42.8,43.5
	C191.9,165.5,172.4,184.8,148.6,184.7z M149,122c-10.8-0.1-19.5,8.4-19.8,19.3c-0.2,10.7,8.9,19.9,19.7,19.9
	c10.6,0,19.5-8.9,19.6-19.6C168.5,130.8,159.8,122.1,149,122z"/>
<path class="st0" d="M243.2,224.1c23.9,0.1,43,19.3,43,43.1c0,23.8-19.7,43.4-43.4,43.2c-23.7-0.2-43-19.8-42.9-43.4
	C200,243.3,219.4,224.1,243.2,224.1z M243,286.8c10.9,0.1,19.5-8.4,19.8-19.3c0.2-10.7-8.9-19.9-19.7-19.9
	c-10.7,0-19.5,8.9-19.6,19.6C223.5,278,232.2,286.7,243,286.8z"/>
</svg>
