<?xml version="1.0" encoding="utf-8"?>
<!-- Generator: Adobe Illustrator 26.0.3, SVG Export Plug-In . SVG Version: 6.00 Build 0)  -->
<svg version="1.1" id="Layer_1" xmlns="http://www.w3.org/2000/svg" xmlns:xlink="http://www.w3.org/1999/xlink" x="0px" y="0px"
	 viewBox="0 0 199.59 73.38" style="enable-background:new 0 0 199.59 73.38;" xml:space="preserve">
<style type="text/css">
	.st0{fill:#FFFFFF;}
</style>
<path class="st0" d="M199.59,23.41c-0.93,1.57-2.3,2.1-4.1,1.99c-1.99-0.12-3.99-0.03-6.15-0.03c0.11,1.56,0.24,2.91,0.29,4.25
	c0.07,1.95,0.2,3.9,0.1,5.84c-0.09,1.82-1.42,2.9-3.1,2.79c-1.58-0.1-2.5-1.22-2.7-3c-0.53-4.76-0.67-9.62-1.81-14.23
	c-2.08-8.37-7.74-13.58-16.33-14.58C154.87,5.2,143.86,4.74,132.99,7c-16.9,3.5-25.15,21.02-17.31,36.48
	c3.14,6.19,7.95,10.87,13.64,14.68c7.66,5.13,15.96,8.83,25.28,9.26c13.77,0.64,24.18-7.22,27.79-20.52
	c0.19-0.69,0.31-1.4,0.57-2.06c0.6-1.55,2.17-2.36,3.61-1.82c1.53,0.57,2.33,1.76,1.97,3.37c-2.89,12.84-11.36,23.08-24.62,26.12
	c-6.02,1.38-12.01,1.02-17.94-0.5c-8.47-2.17-16.24-5.84-23.09-11.29c-10.36-8.25-16.9-18.42-15.73-32.47c-4.88,0-9.7,0-14.58,0
	c-0.13,2.72-0.04,5.52-0.44,8.24c-1.25,8.45-5.54,15.35-11.77,20.98c-11.03,9.95-23.77,16.12-38.9,15.77
	C30.97,73,22.59,68.17,16.57,59.46c-1.12-1.61-0.85-3.33,0.52-4.31c1.35-0.96,3-0.72,4.1,0.79c7.93,10.98,18.72,13.52,31.23,10.29
	c11.21-2.9,20.93-8.46,28.22-17.67c6.72-8.5,7.72-17.92,3.81-27.89c-3.12-7.94-9.45-11.92-17.47-13.64
	c-7.04-1.51-14.18-1.62-21.33-1.37c-3.89,0.13-7.82,0.16-11.66,0.72c-9.33,1.36-15.18,7.14-17.19,16.67
	c-1.5,7.13-1.61,14.3-0.19,21.47c0.43,2.19-0.39,3.74-2.18,4.12c-1.72,0.37-3.31-0.76-3.5-2.99c-0.45-5.35-0.7-10.72-0.95-16.09
	c-0.06-1.28,0.18-2.58,0.31-4.21c-2.54,0-4.97,0.04-7.41-0.02c-1.57-0.04-2.57-0.95-2.81-2.47c-0.24-1.55,0.53-2.66,1.99-3.16
	c0.59-0.2,1.28-0.18,1.92-0.18c2.53-0.02,5.06-0.01,6.97-0.01c2.14-3.65,3.71-7.21,6.06-10.15c5.47-6.86,13.17-9.23,21.62-9.27
	C65.5,0,92.4,0.01,119.3,0c13.9,0,27.81-0.02,41.71,0.12c8.52,0.08,16.26,2.47,21.72,9.45c2.28,2.91,3.82,6.41,5.87,9.96
	c1.93,0,4.4,0.08,6.86-0.03c1.79-0.08,3.17,0.42,4.12,1.96C199.59,22.11,199.59,22.76,199.59,23.41z M79.33,5.62
	c6.1,4.1,9.64,9.35,11.61,15.76c0.13,0.42,1.07,0.82,1.63,0.83c4.67,0.07,9.34-0.02,14.01,0.07c1.41,0.03,2.02-0.4,2.43-1.77
	c1.77-5.82,5.1-10.59,10.12-14.1c0.25-0.17,0.61-0.18,0.92-0.27c-0.15-0.18-0.31-0.35-0.46-0.53C106.39,5.62,93.19,5.62,79.33,5.62z
	"/>
<path class="st0" d="M51.35,25.03c-0.68,1.09-1.03,1.96-1.64,2.58c-4.7,4.76-9.43,9.49-14.18,14.2c-1.51,1.5-3.24,1.63-4.48,0.44
	c-1.35-1.3-1.24-2.96,0.39-4.59c4.72-4.74,9.46-9.47,14.18-14.2c0.99-0.99,2.17-1.7,3.46-0.9C49.97,23.11,50.56,24.14,51.35,25.03z"
	/>
<path class="st0" d="M148.29,43.47c-0.92-0.78-2.12-1.32-2.37-2.16c-0.29-0.93-0.05-2.39,0.55-3.16c1.34-1.73,3.05-3.18,4.61-4.74
	c3.26-3.26,6.51-6.53,9.78-9.78c1.66-1.64,3.29-1.81,4.6-0.52c1.33,1.3,1.2,2.96-0.44,4.61c-4.67,4.7-9.35,9.39-14.07,14.04
	C150.3,42.4,149.39,42.78,148.29,43.47z"/>
<path class="st0" d="M65.98,22.28c2.68-0.06,4.14,2.33,3.09,4.26c-0.24,0.45-0.61,0.84-0.97,1.2c-4.63,4.64-9.26,9.29-13.91,13.91
	c-1.63,1.62-3.34,1.82-4.62,0.62c-1.34-1.26-1.17-3.08,0.5-4.75c4.63-4.65,9.26-9.29,13.93-13.9
	C64.65,22.97,65.54,22.56,65.98,22.28z"/>
<path class="st0" d="M129.6,43.5c-0.92-0.87-2.04-1.45-2.23-2.24c-0.23-0.98-0.01-2.42,0.62-3.16c1.74-2.08,3.79-3.91,5.71-5.84
	c2.84-2.85,5.68-5.7,8.54-8.54c1.75-1.74,3.41-1.92,4.74-0.56c1.25,1.27,1.08,2.99-0.52,4.61c-4.62,4.65-9.25,9.3-13.93,13.89
	C131.79,42.37,130.76,42.78,129.6,43.5z"/>
</svg>
