<svg width="52" height="52" viewBox="0 0 52 52" fill="none" xmlns="http://www.w3.org/2000/svg">
<path d="M51.1746 25.5873C51.1746 39.7166 39.7166 51.1746 25.5873 51.1746C11.458 51.1746 0 39.7166 0 25.5873C0 11.458 11.458 0 25.5873 0C39.7166 0 51.1746 11.458 51.1746 25.5873Z" fill="white"/>
<path d="M10.2071 17.7377C11.6492 17.7377 14.7282 17.7377 15.7627 17.7377C15.9756 17.7377 16.1704 17.8655 16.2616 18.0602C17.5395 20.835 19.0972 23.3481 20.9714 25.563C21.1296 25.8247 21.519 25.7942 21.6407 25.5082C22.2249 24.0844 23.308 20.622 21.2148 18.1576C21.0262 17.9385 21.1053 17.5917 21.3669 17.4822C23.4845 16.5998 25.5534 16.4721 27.5736 17.3726C27.9995 17.5613 28.2734 17.9811 28.2734 18.4497L28.748 25.5813C28.748 25.8977 29.0401 26.1532 29.3504 26.0863C31.6749 25.5934 33.044 22.1128 34.3948 18.4801C34.5591 18.0298 34.9851 17.7316 35.4597 17.7316H40.5772C40.997 17.7316 41.3317 18.1028 41.2587 18.5166C40.778 21.0966 38.1858 24.4373 36.8288 26.0498C36.3603 26.6035 36.3542 27.4189 36.8227 27.9727L41.3986 33.4187C41.7272 33.8081 41.4473 34.4105 40.9362 34.4105H35.1433C34.6687 34.4105 34.2123 34.2097 33.8898 33.8629L29.8372 30.4918C29.6242 30.2606 29.2287 30.1815 29.034 30.4188C28.5289 31.0273 28.5715 31.7818 28.3342 33.4917C28.2612 34.0272 27.7805 34.4105 27.2389 34.4105H23.2776C22.7117 34.4105 22.158 34.2949 21.6468 34.0515C19.3771 32.9745 13.1644 29.1531 9.67769 18.4679C9.55599 18.1089 9.82981 17.7377 10.2071 17.7377Z" fill="#2A2A2A"/>
</svg>
